<svg xmlns="http://www.w3.org/2000/svg" viewBox="0 0 2359 1918"><path fill="#01C6DA" d="M1006 1920c-4.741 0-9.482 0-15.526-.58-6.369-2.177-11.435-3.775-17.027-5.792-8.826-6.186-17.126-11.953-25.465-18.196-.318-1.15-.823-1.479-1.786-2.113-3.571-5.535-6.91-10.418-10.29-15.878-.965-2.247-1.889-3.916-2.944-6.111-.361-.804-.59-1.082-.856-2.018-.813-2.205-1.589-3.754-2.336-5.942-.541-2.226-1.11-3.812-1.691-5.939-.165-.867-.319-1.194-.455-2.072-.46-1.511-.937-2.469-1.302-3.984-.319-1.966-.748-3.378-1.148-5.575-.338-1.161-.707-1.535-1.145-2.439-.157-.875-.245-1.22-.183-2.191.204-1.477.258-2.329.56-3.808.091-3.615.04-6.613-.24-9.59-.792-8.433-1.283-31.269-.868-35.109.247-2.281.146-4.6.299-7.465.084-1.326.069-2.087.079-3.717.193-4.322.361-7.775.588-12.01-.215-2.297-.49-3.812-.307-5.977.814-3.79 1.169-6.931 1.544-10.751.045-2.484.072-4.29.164-6.951.101-2.566.135-4.278.263-6.775.07-2.875.047-4.965.137-7.853.116-2.936.118-5.075.505-7.819.535-2.978.687-5.35.946-8.464-.013-2.236-.134-3.731-.131-6.016.059-2.903-.006-5.017.051-7.912.031-2.874-.059-4.966.002-7.89-.052-3.307.441-16.934.498-21.081.027-1.995.038-3.991.073-6.884-.005-6.289-.026-11.681-.118-17.873-1.281-6.496.303-15.363-.35-29.778.006-4.812-1.475-27.81-1.384-30.17.124-2.261.054-3.784.308-5.857-.038-3.639-.399-6.728-.751-10.387-.097-1.32-.203-2.071-.133-3.532.078-2.17-.02-3.629.022-5.812-.396-3.042-.933-5.36-1.324-8.345.012-1.563-.122-2.459-.096-4.024.075-1.583-.01-2.495-.033-4.233-.11-3.022-.283-5.22-.424-8.057-.138-1.908-.309-3.176-.286-5.161-.288-3.103-.77-5.489-1.08-8.599-.065-2.188-.303-3.653-.454-5.911-.005-2.389-.096-3.983-.131-6.202-.756-2.501-1.568-4.377-2.176-6.977.264-1.219.324-1.715.552-2.942.047-2.218-.073-3.704-.092-5.97-.037-2.347-.174-3.914-.229-6.061-.014-1.357-.11-2.132-.124-3.573-.49-2.318-1.062-3.97-1.488-6.273.003-1.529-.14-2.407-.205-4.089-.095-2.413-.266-4.02-.41-6.17-.467-1.481-.961-2.419-1.372-3.719-.302-.931-.687-1.5-.692-2.622.528-1.414.675-2.274.904-3.743-.176-1.383-.433-2.156-.701-3.542-.056-1.017-.1-1.423-.052-2.45-.477-2.133-1.046-3.645-1.551-5.602.064-.445-.082-1.334.051-2.016.033-1.596-.068-2.51-.091-4.106-.045-1.587-.167-2.492-.179-4.003-.043-1.409-.194-2.213-.308-3.596-.426-1.613-.889-2.646-1.244-4.329-.106-1.498-.321-2.347-.43-3.904.039-1.66-.028-2.611-.062-4.095-.154-.836-.342-1.139-.621-1.843-.399-.862-.768-1.266-1.084-2.041.116-.427-.026-1.301.146-2.006.034-1.652-.105-2.6-.182-4.225-.06-1.573-.183-2.47-.25-3.965-.46-1.654-.977-2.71-1.444-4.079.05-.314-.238-.88-.118-1.468.023-.977-.076-1.365-.087-2.272-.006-.857-.099-1.196-.17-2.046-.049-.847-.119-1.182-.163-2.218-.723-2.862-1.471-5.021-2.296-7.818-1.286-2.866-2.497-5.094-3.925-7.981-3.685-4.95-7.899-7.882-14.313-8.392-9.64-2.231-17.241.078-23.842 7.46-9.153 5.789-13.884 13.831-16.718 24.074-.228 5.588-.039 10.56.342 16.083.387.891.583 1.228.68 1.949-.099.383.021 1.167.009 1.986 3.205 9.169 6.421 17.517 9.774 26.267.137.401.622 1.096.614 1.771 1.888 3.562 3.783 6.449 5.667 9.399-.012.063.11.103.085.823 2.519 5.589 5.062 10.458 7.673 15.389.069.062.219-.046.236.703 2.77 8.092 5.524 15.435 8.205 22.852-.072.075.076.22-.001.938.049 2.156.174 3.595.226 5.699.349 2.334.771 4.004 1.323 6.151.131.476.393 1.428.253 2.214-.07 2.91.001 5.033-.055 7.609-.125.453-.305 1.374-.665 1.979-.632 2.925-.906 5.245-1.265 8.074-.004.843.076 1.177.106 1.538-.05.028.02.118-.466.539-2.282 3.876-4.079 7.332-6.33 11.09-.769.947-1.082 1.591-1.42 2.233-.024-.002-.071-.016-.658.18-2.808 2.075-5.03 3.954-7.743 5.987-.903.68-1.312 1.206-1.712 1.627.009-.105-.201-.128-.8-.063-1.357.34-2.116.616-3.323.954-1.048.259-1.522.619-2.627 1.195-2.767.164-4.777.275-7.718.334-4.652.166-8.373.385-12.544.604-1.043-.093-1.641-.127-2.896-.232-1.097-.148-1.541-.166-2.41-.266-.425-.082-1.289-.028-1.702-.22s-1.307-.362-1.815-.775c-2.958-1.327-5.407-2.24-8.244-3.572-1.44-.844-2.492-1.27-3.42-1.755.124-.059.039-.322-.22-.866-2.181-1.987-4.102-3.43-6.304-5.346-1.138-1.138-1.994-1.803-3.133-3.071-2.896-4.667-5.509-8.73-8.185-13.547-1.942-5.816-3.821-10.878-5.658-16.162.042-.222-.333-.479-.187-.949.145-.471.429-1.414.86-2.1.227-4.486.022-8.287.01-12.741.233-2.009.273-3.365.367-5.419.006-1.164-.042-1.628.082-2.695.228-1.423.285-2.244.65-3.242.308-.178.521-.857.859-1.406.388-1.825.438-3.101.685-4.858.177-.826.157-1.172.406-1.742.271-.223.514-.882.892-1.409.454-1.798.531-3.069.672-4.823.064-.483-.239-1.409.006-2.026.848-2.218 1.451-3.818 2.438-6.01 1.089-3.33 1.795-6.07 2.848-9.316.367-1.727.388-2.947.641-4.832.245-1.6.258-2.536.367-3.864.096-.393-.127-1.171.226-1.637.54-1.981.728-3.497 1.012-5.904.129-2.683.161-4.474.218-6.844-.09-1.337-.204-2.096-.302-3.554-.992-3.752-2.001-6.804-3.18-10.534-4.172-5.795-8.173-10.913-12.474-16.58-5.487-3.201-10.673-5.852-16.203-8.664-.344-.162-1.093-.297-1.412-.587-.82-.627-1.37-.749-2.53-.795-.948-.166-1.333-.193-2.215-.353-.839-.101-1.18-.071-1.912-.121-.39-.081-1.184-.023-1.57-.41-1.436-.636-2.485-.886-4.232-1.253-1.635-.178-2.573-.239-4.365-.352-3.702.001-6.55.055-10.194.053-4.247.711-7.699 1.478-11.622 2.158-.47-.087-1.401.136-2.007.122-1.727.359-2.847.732-4.684 1.296-10.894 4.04-21.124 7.809-27.294 17.876-.1.051-.1.275-.653.46-1.441 1.423-2.328 2.661-3.781 4.281-4.071 7.613-7.575 14.845-11.51 22.547-.699 2.096-.967 3.723-1.327 5.439-.093.089-.08.346-.534.881-1.107 3.32-1.76 6.107-2.697 9.401-.383 1.659-.482 2.81-.73 4.651-.151 2.097-.151 3.506-.411 5.413-.202 2.187-.144 3.875-.144 6.366.095 2.935.247 5.065.364 8.078.17 4.354.374 7.826.666 11.588.088.29.378.823.205 1.51.229 2.432.632 4.178 1.029 5.975-.005.05.089.089-.005.847.453 3.711.999 6.664 1.592 10.342 1.18 4.202 2.315 7.679 3.662 11.759.463 1.415.715 2.228.855 3.689.587 2.169 1.287 3.691 2.015 5.272.029.059.07.184-.022.873 1.194 3.532 2.479 6.375 3.787 9.278.022.06.072.179-.035.735.416 1.503.94 2.45 1.494 3.521.029.123.195.316.178.931.766 2.002 1.549 3.389 2.332 4.838 0 .062.087.152.042.724.563 1.49 1.171 2.407 1.784 3.392.006.068.115.151.068.73.503 1.554 1.052 2.53 1.772 3.923.17.418.592 1.216.554 1.793.553 1.52 1.143 2.462 1.734 3.468.001.063.093.149.045.715.533 1.476 1.113 2.388 1.714 3.399.021.101.171.24.124.806.5 1.519 1.047 2.472 1.817 4.023 1.004 2.093 1.785 3.588 2.607 5.828 5.197 14.984 10.353 29.224 15.493 44.252.751 4.904 1.518 9.019 2.257 13.804.101 1.555.229 2.441.287 3.949.277 1.801.625 2.981.725 4.884.218 2.601.683 4.478 1.134 7.089-.004 2.202.007 3.669-.426 5.699-.755 2.916-1.065 5.269-1.393 8.37.025 2.24.068 3.733-.188 5.862-1.259 4.21-2.218 7.784-3.48 11.835-.403.838-.505 1.2-.977 1.701-.818.566-.893 1.051-.926 2.117-.45.917-.57 1.312-1.223 2.026-2.022 2.784-3.512 5.249-5.295 7.986-.293.271-.574 1.021-1.115 1.183-1.352.926-2.164 1.689-3.489 2.573-.854.71-1.195 1.297-2.051 2.194-2.256 1.946-3.996 3.581-6.266 5.433-1.462.848-2.393 1.481-3.899 2.233-2.184 1.164-3.793 2.209-6.115 3.326-2.884 1.003-5.055 1.932-7.682 2.78-.456-.083-1.344.177-2.048.152-1.976.479-3.247.982-5.015 1.48-1.149.09-1.802.185-3.098.159-1.503.005-2.363.13-4.091.151-4.353-.059-7.841-.013-11.999-.09-1.574-.093-2.475-.064-3.942-.005-.932.125-1.297.221-1.975.093-.314-.223-.884-.74-1.176-1.123-.847-.784-1.462-.928-2.67-.82-.889.016-1.244.035-2.074-.066-.476-.122-1.457-.073-1.747-.172s-.904-.119-1.424-.595c-2.341-.881-4.163-1.287-6.415-2.096-1.572-.64-2.712-.877-4.283-1.392-.758-.375-1.085-.472-1.863-1.001-2.753-1.413-5.054-2.396-7.969-3.912-2.607-1.064-4.598-1.595-6.629-2.07-.039.055-.054-.091-.148-.826-1.349-1.309-2.605-1.883-3.816-2.544.045-.086-.007-.272-.175-.826-.971-1.33-1.774-2.105-2.854-3.441-2.188-2.141-4.097-3.721-6.175-5.749-.53-1.028-1.045-1.38-1.952-2.116-3.167-4.243-6.099-7.874-9.268-12.192-3.185-6.132-6.132-11.577-9.167-17.66-1.221-2.914-2.355-5.19-3.437-8.01-.376-1.514-.803-2.485-1.348-4.162-.955-2.913-1.791-5.119-2.562-7.964-.605-1.629-1.275-2.62-2.029-4.058-.084-.447-.323-1.324-.198-1.909-.299-1.24-.722-1.895-1.225-2.528-.08.022.05-.032.466-.879.171-2.065-.074-3.283-.318-4.829.001-.327-.48-.776-.361-1.416-.028-1.048-.176-1.457-.244-2.514-.075-1.507-.23-2.364-.289-3.826-.041-1.408-.178-2.211-.27-3.842-.12-1.918-.286-3.008-.497-4.563-.438-1.291-.83-2.117-1.22-3.568-.075-1.455-.152-2.285-.093-3.862.159-2.252.184-3.758.144-5.822-.14-.923-.215-1.29-.139-2.549-.029-6.334-.209-11.775-.225-18.025.191-3.551.216-6.295.404-9.811.326-3.858.489-6.942.816-10.695.267-2.493.37-4.318.606-6.989.233-3.119.333-5.393.421-8.188-.111-.854-.21-1.187-.171-2.098.076-1.366.013-2.155.044-3.653.157-1.658.222-2.608.439-4.196.145-1.503.138-2.368.33-3.627.328-1.269.457-2.143.759-3.911.29-3.306.409-5.718.557-8.824.001-2.082-.028-3.469-.009-5.567.071-1.66.094-2.609.228-4.185.142-1.472.172-2.318.332-3.831.022-1.558-.085-2.448-.015-4.143.267-2.992.356-5.179.743-8.048.057-5.576-.183-10.47-.396-16.056-.148-1.593-.324-2.494-.323-4.128-.134-2.197-.444-3.662-.401-5.452.064-1.476-.224-2.626-.308-4.5-.427-2.528-1.059-4.333-1.49-6.161.202-.023.328-.408.522-1.208-.16-1.822-.514-2.846-.841-4.644-2.134-14.837-8.893-26.285-20.036-36.021-4.823-2.988-9.294-5.395-14.243-8.28-3.527-1.298-6.576-2.12-10.134-3.142-.872-.168-1.236-.135-2.12-.487-2.216-.579-3.912-.774-6.252-1.063-1.509-.146-2.373-.197-3.929-.554-5.085-1.726-9.445-2.784-13.966.74-1.383-.075-2.178-.042-3.648-.096-2.317.571-3.959 1.231-6.08 1.757-.479-.134-1.462.022-2.022.029-.928.072-1.296.135-2.102.202-1.033.131-1.527.429-2.299 1.012-.38.116-1.053.542-1.793.578-7.722 3.941-14.704 7.847-22.207 11.944-1.388.839-2.255 1.486-3.617 2.449-1.496 1.42-2.497 2.524-3.536 3.621-.039-.009-.078.06-.623.169-1.384.791-2.223 1.473-3.512 2.396-1.072 1.032-1.695 1.824-2.881 2.794-1.351.989-2.138 1.8-3.491 2.938-1.205 1.449-1.846 2.572-2.444 3.623.043-.072.014-.236-.644-.027-2.774 1.894-4.89 3.58-7.558 5.456-1.426.935-2.3 1.68-3.785 2.645-3.462 2.136-6.312 4.051-9.692 6.154-1.45.817-2.37 1.447-3.895 1.984-1.685.401-2.764.894-4.252 1.528-.409.142-1.193.511-1.661.475s-1.377.197-2.264.119c-5.035-.05-9.183-.022-14.044-.087-2.144-.205-3.576-.317-5.478-.866-2.073-1.032-3.677-1.626-5.614-2.533-.864-.67-1.448-.827-2.334-1.169-.707-.837-1.258-1.073-2.348-1.549-2.801-2.231-5.155-4.007-7.904-6.259-1.421-1.154-2.447-1.832-3.624-3.036-1.372-1.259-2.593-1.995-4.103-3.34-3.951-4.088-7.616-7.566-11.412-11.473-.796-1.014-1.46-1.597-2.397-2.709-1.923-1.584-3.572-2.639-5.393-4.059-.172-.363-.705-.967-.995-1.509-2.043-1.576-3.796-2.61-5.935-4.103-1.449-.98-2.513-1.503-3.928-2.521-2.151-1.299-3.953-2.102-6.197-3.139-.775-.284-1.105-.334-1.836-.783-1.451-.798-2.5-1.198-3.994-1.96-1.55-.511-2.657-.659-4.285-1.049-1.494-.815-2.465-1.39-3.846-2.372-1.487-.772-2.563-1.136-4.076-1.721-.437-.22-1.396-.416-1.882-.866-4.232-1.912-7.978-3.373-12.148-5.081-.424-.247-1.377-.477-1.812-.941-2.822-1.363-5.209-2.263-8.025-3.535-1.502-.717-2.575-1.061-4.081-1.866-2.037-.934-3.64-1.406-5.262-1.862-.019.017-.021-.028-.232-.5-.841-.694-1.471-.918-2.557-1.311-.455-.17-1.42-.296-1.747-.739-1.348-.835-2.37-1.226-3.89-2.08-3.468-1.524-6.438-2.585-9.849-4.158-5.401-2.907-10.361-5.302-15.348-7.728-.026-.032-.109-.022-.415-.431-.953-.568-1.6-.726-2.688-1.356-3.52-2.057-6.599-3.641-10.218-5.6-2.169-.743-3.798-1.11-5.674-1.981-1.174-1.104-2.102-1.706-3.327-2.775-.976-.706-1.655-.946-2.827-1.646-4.093-2.454-7.693-4.447-11.755-6.886-5.506-3.465-10.552-6.484-16.026-9.97-4.901-3.083-9.371-5.699-14.393-8.604-2.167-1.48-3.784-2.671-5.837-4.468-1.727-1.262-3.017-1.919-4.334-2.551-.025.025-.018-.076-.286-.581-1.141-1.157-2.012-1.81-3.069-2.918-.612-.995-1.165-1.327-2.22-1.88-1.403-.934-2.428-1.437-3.632-2.423-.801-.621-1.422-.761-2.288-1.452-1.449-1.584-2.654-2.618-4.185-4.203-3.279-3.016-6.232-5.482-9.477-8.481-2.147-2.1-4.002-3.666-6.226-5.782-4.124-3.825-7.879-7.1-11.967-10.898-4.036-3.353-7.739-6.183-11.689-9.468-.825-.812-1.404-1.17-2.364-2.157-2.482-1.642-4.581-2.654-6.681-3.626 0 .041-.034.071-.198-.59-3.084-3.924-6.005-7.186-9.129-10.911-.661-.96-1.117-1.456-1.776-2.525-2.003-2.163-3.805-3.753-5.99-5.89-4.19-4.797-7.998-9.046-11.959-13.938-2.658-3.679-5.162-6.714-7.785-10.155-.118-.406-.709-1.009-.926-1.633-3.805-5.742-7.394-10.861-11.176-16.589-2.012-3.431-3.83-6.253-5.824-9.776-5.643-12.152-11.111-23.602-16.639-35.8-4.242-13.188-8.424-25.627-12.681-38.091-.074-.024.042-.077.225-.992-.423-3.307-1.029-5.701-1.58-8.952-1.498-12.214-3.05-23.57-4.492-35.577-.221-2.36-.552-4.07-.755-6.504.014-2.191-.1-3.656.01-5.78.164-9.157.024-17.656.072-26.154.029-5.222.345-10.442.781-16.462 1.97-12.877 3.691-24.954 5.805-37.733 3.243-11.483 6.094-22.264 9.317-33.634 10.046-19.54 19.719-38.494 29.885-57.887 2.217-3.475 3.942-6.509 6.301-9.792 3.963-4.569 7.202-8.963 10.654-13.182 2.29-2.799 2.134-5.153-.747-8.064-2.183-3.382-4.178-6.147-6.365-9.519-1.531-2.717-2.87-4.827-4.314-7.604-1.823-3.817-3.541-6.967-5.399-10.827-3.116-8.6-6.093-16.491-9.135-25.127-1.69-6.32-3.314-11.894-4.801-18.028.014-.922-.108-1.286-.208-2.318-.177-1.538-.376-2.407-.459-3.685.118-.408.078-1.259.102-2.063-.236-1.844-.496-2.884-.716-4.491-.34-2.023-.719-3.479-1.066-5.702-.092-2.298-.216-3.828-.237-6.065-.024-2.121-.151-3.536-.099-5.811.039-4.354-.101-7.849-.066-12.058.179-2.177.184-3.642.444-5.823.387-3.191.519-5.667.727-8.859-.125-2.611-.326-4.506.054-6.902.693-1.505.806-2.507 1.061-4.002.124-.835.106-1.177.377-2.14.364-1.523.438-2.425.832-3.904.893-3.608 1.466-6.639 2.359-10.333.982-3.522 1.644-6.38 2.62-9.896 1.459-4.888 2.603-9.119 3.899-14.049 2.672-6.235 5.192-11.77 8.197-17.748 1.547-2.812 2.61-5.183 4.127-8.019 1.48-2.82 2.505-5.175 4.059-7.957 2.982-5.407 5.433-10.387 8.382-15.835 2.128-4.766 3.758-9.064 6.025-13.593 2.404-3.369 4.17-6.506 6.374-10.167 2.248-4.305 4.058-8.087 6.284-12.16.957-1.496 1.498-2.701 2.474-4.456 8.18-15.5 15.925-30.451 24.097-45.906 1.135-2.099 1.842-3.694 3.018-5.662 1.237-2.188 2.007-4.003 3.214-6.167.886-1.358 1.332-2.367 2.303-3.814 2.229-4.177 3.934-7.917 6.135-12.088 1.47-2.845 2.444-5.258 3.986-8.015 2.817-4.783 5.065-9.222 7.768-14.125 1.449-2.837 2.442-5.208 3.971-7.974 1.519-2.797 2.502-5.199 3.804-8.165 1.954-3.529 3.589-6.494 5.742-9.8.965-1.453 1.412-2.565 2.309-4.144 1.531-2.803 2.612-5.139 4.24-7.889 7.634-14.091 14.721-27.766 22.28-41.8.864-1.459 1.257-2.56 2.149-4.065 1.635-2.722 2.771-5.04 4.306-7.81 1.166-2.276 1.932-4.1 3.203-6.229.902-1.39 1.299-2.474 2.196-3.99 1.532-2.84 2.563-5.25 4.125-7.97 1.371-2.132 2.213-3.955 3.53-6.282 1.881-3.44 3.286-6.375 5.126-9.696 1.217-2.127 1.999-3.868 3.281-6.033 1.5-2.841 2.499-5.258 4.035-7.977 1.411-2.119 2.286-3.935 3.634-6.219 1.132-2.099 1.793-3.729 2.909-5.736 1.289-2.127 2.121-3.877 3.448-6.059 1.553-2.842 2.612-5.253 4.111-7.835.902-.662 1.1-1.243 1.501-2.402 3.401-6.165 6.335-11.841 9.741-18.032 6.943-12.829 13.414-25.144 20.369-37.789.891-1.408 1.298-2.485 2.178-3.925.898-1.464 1.321-2.564 2.208-3.964.893-1.3 1.322-2.3 2.124-3.866.251-1.001.129-1.437-.055-1.93-.061-.059.091.037.691-.125 3.248-4.591 5.896-9.021 9.132-13.804 3.792-4.098 6.998-7.843 10.703-11.873 1.931-2.075 3.36-3.865 5.346-5.983 3.444-3.324 6.332-6.319 9.742-9.623 1.698-1.398 2.876-2.487 4.607-3.88 1.989-1.755 3.425-3.207 5.167-4.878.306-.219.808-.779.892-.77s.214-.102.867-.314c1.684-1.114 2.715-2.015 4.208-2.853 1.125-.085 1.578-.477 2.405-1.459 4.176-2.9 7.766-5.453 11.924-8.176 1.458-.914 2.348-1.658 3.927-2.326 4.281-1.779 7.873-3.633 12.084-5.6 1.687-.723 2.755-1.335 4.194-1.985.372-.038 1.074-.291 1.739-.344 3.034-1.154 5.403-2.254 8.008-3.76.235-.405.422-1.319.792-1.02 1.172.47 1.633.151 2.524-.353 1.298.15 1.827-.007 2.787-.188.431-.025 1.195-.428 1.716-.41.841-.112 1.162-.244 2.25-.368 4.24-.725 7.713-1.458 11.605-2.308 1.005-.316 1.425-.697 2.211-1.212.864-.074 1.197-.196 2.236-.295 1.632-.134 2.558-.292 3.957-.418 1.088-.116 1.707-.24 3.095-.178 1.281.218 1.799.273 2.9.321 1.68-.379 2.777-.751 4.564-1.032 4.706-.225 8.721-.54 13.391-.843 1.524-.088 2.392-.188 3.795.147 3.54.219 6.547.003 10.307-.026 2.293.283 3.831.379 5.875.836 2.131.597 3.757.832 5.83 1.066.446-.001 1.334-.095 1.947-.07 1.022-.002 1.43-.029 2.475.129 1.505.324 2.375.461 3.525.935.782.699 1.339.837 2.299.761.348.012 1.03-.124 1.588.031.945.169 1.331.183 2.21.325.828.073 1.164.018 1.839.173.34.21 1.102.452 1.675.883 10.38 3.875 20.188 7.319 30.529 11.155 2.127 1.144 3.722 1.895 5.678 3.08 2.056 1.194 3.752 1.955 5.864 3.174 1.563.828 2.708 1.197 4.244 1.901.978.689 1.566 1.041 2.461 1.945 3.135 2.476 5.962 4.4 9.076 6.81 1.608 1.155 2.928 1.825 4.51 2.918.672.953 1.157 1.401 1.956 2.337 1.985 1.597 3.733 2.623 5.522 3.624.043-.024.014.069.135.568.661.893 1.2 1.288 2.066 2.197 2.125 2.127 3.924 3.741 5.986 5.821.915.647 1.568.828 2.397 1.629.953 1.63 1.73 2.639 2.503 3.985.22.817.592 1.008 1.213 1.173.101.262.608.507.643.849s.589.747.589.747.661-.189.862.429c.755 1.261 1.309 1.906 2.016 3.158 1.999 2.841 3.845 5.074 5.913 7.961 3.433 5.608 6.645 10.563 9.881 16.063.711 1.307 1.396 2.068 2.415 3.511.591 1.117.849 1.553.94 2.262-.09.823.219 1.034 1.038 1.525.547.988.816 1.354.946 2.299.791 2.249 1.72 3.918 2.833 6.106.409.808.634 1.098.746 2.089 1.562 4.942 3.238 9.182 4.885 13.523-.03.101.167.177.17.931 2.615 7.557 5.228 14.36 7.899 21.93 6.657 18.319 13.256 35.87 19.893 53.87.037.449.393 1.276.365 1.964 1.251 3.529 2.529 6.37 3.792 9.272-.015.062.113.07.062.679.467 1.685.986 2.761 1.543 4.252.038.414.398 1.164.419 1.86 1.277 3.627 2.534 6.558 3.825 10.249 1.231 3.4 2.427 6.04 3.989 9.485l18.487-4.297c-3.182-8.21-5.894-15.207-8.521-22.854-.384-2.313-.852-3.976-1.317-6.106.004-.467-.543-1.224-.529-1.843-.465-1.7-.944-2.78-1.394-4.223.03-.363-.349-.984-.129-1.666-.009-1.6-.239-2.518-.429-3.985-.031-.908-.101-1.268-.08-2.243.019-1.437-.054-2.26-.091-3.918-.178-2.491-.39-4.147-.577-6.411-.166-1.808-.358-3.007-.276-5.139.047-6.085-.181-11.238-.2-17.057.286-2.514.361-4.362.566-7.035.267-2.479.406-4.133.615-6.423.033-1.487-.005-2.337.082-3.673.102-.82.078-1.153.347-2.234.242-1.799.19-2.85.254-4.095.115-.193-.129-.571.303-1.048.651-1.727.87-2.977 1.332-4.629.245-.404.276-1.346.535-2.005.266-1.13.274-1.602.335-2.213.053-.14-.117-.385.017-.551.134-.165.169-.589.493-1.017.427-1.488.529-2.548 1.009-4.146.716-2.24 1.056-3.942 1.662-6.129.263-.856.257-1.225.578-1.88.326-.285.316-1.15.66-1.717 2.205-5.662 4.066-10.759 6.371-16.416 4.443-8.147 8.441-15.732 12.934-23.64 1.432-2.036 2.37-3.748 3.889-5.817 6.243-7.534 11.906-14.71 18.139-22.156 2.877-2.71 5.185-5.151 8.075-7.762 2.075-1.478 3.567-2.785 5.502-4.377 1.076-1.108 1.708-1.932 3.007-2.947 10.85-6.847 21.033-13.504 31.796-20.316 1.968-.921 3.358-1.686 5.422-2.526 2.265-.908 3.855-1.741 6.067-2.62 2.882-1.061 5.143-2.077 7.918-3.153 1.424-.483 2.333-.906 3.774-1.513.849-.383 1.167-.581 1.997-.752 1.477-.235 2.443-.497 4.205-.918 4.94-1.134 9.085-2.109 13.614-3.143.899-.202 1.332-.476 2.254-1.015.916-.318 1.262-.501 2.277-.65 1.552-.105 2.433-.245 3.73-.349.417.036 1.23-.156 2.038-.066 4.351-.603 7.895-1.295 12.134-1.839 2.093-.068 3.492-.283 5.723-.367 2.504.031 4.177-.069 6.356-.226 1.163-.238 1.818-.419 3.114-.422 1.82-.327 2.999-.833 4.871-1.139 2.127.12 3.56.041 5.835.046 2.522-.093 4.201-.27 6.35-.476 1.094-.116 1.715-.213 3.03-.128 2.476-.336 4.256-.861 6.731-1.246 2.097-.046 3.5-.232 5.626-.282 1.702.15 2.682.165 4.226.187.921-.111 1.278-.229 2.168-.423 1.225-.27 1.915-.464 3.275-.461 2.445-.155 4.22-.509 6.667-.878 1.991-.263 3.311-.512 5.429-.58 1.885.223 2.972.264 4.685.245 1.788-.562 2.95-1.064 4.478-1.231 1.824.045 3.281-.245 5.375-.496 1.479-.071 2.322-.181 3.882-.176 3.098-.103 5.48-.322 8.653-.726 2.158-1.053 11.222-1.525 13.396-1.254 2.403.039 4.009-.037 6.39-.25 5.83-1.783 10.499-2.156 11.651-1.729.94.144 1.319.178 2.473.295 2.849-.044 4.923-.172 7.662-.384 1.861-1.302 13.23-2.29 15.611-2.066.882.063 1.237.026 2.395.068 2.95.108 5.097.137 7.897.17 2.214-.618 3.777-1.241 6.066-1.814 2.178-.1 3.628-.249 5.856-.286 2.345.047 3.914-.02 6.239-.003 3.57-.702 6.385-1.488 9.69-2.081.837.135 1.184.076 2.004.113.474.094 1.433-.013 2.292.1 4.317.072 7.774.03 12.238-.025 2.925-.63 4.843-1.247 7.264-1.793 2.208-.049 3.914-.17 6.395-.189 2.332-.01 3.889-.122 6.146-.167 2.101-.004 3.503-.076 5.584-.059 2.844-.497 5.008-1.083 7.759-1.691.971-.1 1.354-.177 2.396-.144 1.543.027 2.428-.055 4.044-.071 1.702-.038 2.674-.143 4.09-.202.444.046 1.321-.127 2.038-.02 2.564-.451 4.412-1.008 6.591-1.2 1.765.158 3.199-.049 5.295-.233 1.534-.109 2.407-.242 3.941-.243 1.561.063 2.458-.008 4.144-.012 2.364-.032 29.353-2.141 33.687-1.728 2.863.548 5.262.684 7.997.782.336-.037.739-.581 1.566-.272 1.977.178 3.126.046 4.67.259 1.414.467 2.435.589 4.093.847 1.502.159 2.367.182 3.758.688 2.874.75 5.223 1.016 8.038 1.328.467.045 1.406.025 1.658.193s.852.249 1.436.692c2.503.746 4.422 1.048 6.732 1.772 1.483.68 2.575.939 4.175 1.232 1.122-.239 3.221.669 3.669 1.073 2.299.182 4.151-.039 6.579-.445 1.57-.815 2.564-1.445 3.976-2.191.419-.116 1.138-.604 1.857-.675 5.6-1.905 10.481-3.739 15.98-5.548 1.763-.379 2.908-.783 4.394-1.311.342-.125.921-.57 1.43-.545.831-.083 1.152-.192 2.168-.264 1.921-.49 3.148-1.019 4.598-1.534.222.014.621-.191 1.182-.144.931-.017 1.302-.081 2.4-.133 2.575-.437 4.422-.885 6.766-1.444 1.161-.293 1.825-.475 3.019-.573.888.072 1.246.06 2.373.074 2.303-.118 3.836-.263 5.901-.397 1.236-.066 1.941-.144 3.375-.067 1.72.138 2.712.122 4.637.131 8.498-.045 16.061-.115 24.152-.188 1.227-.02 1.928-.037 3.41.054 2.352.208 3.924.309 6.023.455.871-.04 1.214-.126 1.98.177 1.491.771 2.558 1.154 4.372 1.599 2.242.067 3.738.072 5.742.147.849.048 1.191.025 1.8.1.269.098.839.058 1.409.542 2.525.84 4.479 1.197 6.735 1.674.302.121.947.195 1.449.539 1.684.574 2.865.804 4.477 1.169.431.136 1.333.185 1.856.601 2.247.768 3.972 1.12 6.139 1.921 2.021.925 3.601 1.401 5.722 2.202.961.346 1.381.368 1.954.857 1.354.887 2.556 1.308 4.254 1.976.863.305 1.228.363 2.008.805 1.423.887 2.431 1.391 3.845 2.39 2.717 1.575 5.031 2.654 7.626 4.139.782.88 1.377 1.14 2.478 1.639 2.225 1.361 4.036 2.27 6.259 3.524.717.531 1.022.718 1.604 1.341 1.45 1.138 2.623 1.841 4.03 3.086 1.3 1.031 2.366 1.52 3.687 2.454 1.201.67 2.146.895 3.332 1.703 1.12 1.462 1.998 2.341 3.169 3.715 1.306 1.005 2.319 1.515 3.695 2.568 4.303 4.016 8.243 7.49 12.348 11.615 3.982 5.548 7.799 10.445 11.947 15.765 4.259-5.105 8.016-9.607 12.363-14.386 3.571-3.385 6.553-6.492 10.141-9.85 4.218-3.333 7.83-6.415 11.94-9.767 1.598-1.23 2.699-2.191 4.477-3.321 4.139-2.386 7.6-4.603 11.593-6.954 1.404-.779 2.274-1.425 3.83-2.161 4.299-1.959 7.913-3.829 12.087-5.797 1.516-.669 2.472-1.239 4.013-1.857 1.663-.456 2.74-.865 4.418-1.427 2.007-.949 3.414-1.746 5.323-2.536.817-.11 1.131-.228 2.164-.346 3.917-.953 7.115-1.907 10.569-2.978.256-.117.556-.6 1.197-.653 1.462-.301 2.283-.547 3.705-.697 1.764-.134 2.927-.363 4.529-.826.44-.233 1.267-.776 1.775-.695.844.013 1.18-.055 2.226-.121 1.649-.12 2.588-.244 4.279-.527 6.837-2.074 19.197-2.235 21.687-2.064 4.447-.001 8.015-.172 12.397-.174 2.653.057 4.491-.057 7.007-.212 5.003.161 4.757.61 10.596 1.229 1.255.162 1.979.197 3.572.544 2.078.159 3.287.008 4.591-.089.095.054.278-.077.66.32 1.076.573 1.77.75 2.919 1.04.457.113 1.395.172 1.804.541 1.483.499 2.557.63 4.17.937.915.191 1.293.207 2.145.351.475.129 1.459.157 1.933.605 2.162.79 3.85 1.132 5.926 1.629.388.156 1.209.316 1.767.743 4.185 1.429 7.813 2.432 11.923 3.862 2.122.895 3.761 1.363 5.847 2.27 1.61.883 2.774 1.329 4.367 2.111 1.485.546 2.54.755 4.015 1.351 1.448.869 2.478 1.352 3.88 2.322 2.239 1.277 4.106 2.066 6.295 3.084.323.229 1.044.553 1.395 1.069 2.158 1.493 3.964 2.468 6.193 3.884 2.196 1.405 3.97 2.37 6.101 3.888 4.645 3.595 8.933 6.635 13.282 9.681.061.004.146-.082.325.408.772.819 1.364 1.147 1.862 1.56-.095.084.056.288.259.723.649.954 1.214 1.223 2.381 1.583.871.4 1.26.459 1.716 1.133 3.29 3.862 6.513 7.11 10.044 10.775.757.944 1.205 1.47 1.762 2.452.47 1.054 1 1.333 2.064 1.747 1.087 1.361 1.809 2.27 2.601 3.625.41 1.061.924 1.294 1.851 1.626.673 1.05 1.107 1.619 1.624 2.693.597.927 1.11 1.349 1.789 2.161.165.39.713 1.037.766 1.49.336 1.08.823 1.387 1.522 1.488.01.114.226.188.263.671.3 1.159.792 1.531 1.758 2.084.469.766.694 1.048.856 1.731.128 1.011.544 1.293 1.197 1.393.014.147.266.297.206.827.639 1.176 1.338 1.824 2.157 2.738.121.267.57.646.455 1.061.006 1.074.398 1.445 1.269 2.001.413.751.618 1.027.681 1.772-.064 1.187.307 1.689 1.135 2.699 4.16 11.544 8.157 22.362 12.125 34.002 1.048 6.555 2.125 12.288 3.533 19.778 6.965-4.919 12.517-8.84 18.776-12.883 4.876-2.103 2.314-5.161 1.875-7.808-2.19-13.227-4.447-26.442-6.55-40.592.084-7.811.037-14.691.049-22.171.055-1.403.051-2.205.16-3.726.188-2.17.262-3.622.569-5.517.325-1.425.418-2.406.71-4.162.327-1.824.455-2.875.628-4.351.044-.427-.161-1.259.166-1.962.904-4.268 1.481-7.833 2.298-11.99.213-1.015.185-1.439.286-1.958.129-.094-.013-.38.459-.89.662-1.846.851-3.183 1.305-4.984.297-.818.329-1.172.761-2.006 1.028-2.897 1.656-5.315 2.637-8.354 1.781-4.629 3.209-8.637 5.135-13.145 8.816-19.347 20.394-36.107 33.853-52.099.972-.538 1.291-1.053 2.01-1.957 4.264-4.079 7.913-7.903 12.132-11.805 1.436-.768 2.304-1.457 3.574-2.412.931-.672 1.305-1.189 2.152-2.076 17.363-13.425 35.993-23.263 56.235-31.598 4.329-1.251 7.934-2.447 12.273-3.751 4.074-1.005 7.413-1.902 11.597-2.759 20.783-3.083 40.737-5.727 60.904-1.976 11.974 2.227 23.944 4.472 35.976 6.722.06.013.157-.062.55.389 1.536.734 2.679 1.016 4.137 1.444.316.145 1.007.218 1.495.635 1.725.701 2.961.985 4.662 1.616.829.468 1.195.589 1.94.985 1.297.501 2.213.728 3.135.989.004.036.054.09.525.569 4.976 2.57 9.481 4.661 14.296 6.938.31.186 1.007.382 1.346.784.984.643 1.629.884 2.827 1.516 6.159 3.816 11.765 7.243 17.78 11.096.713.678 1.016.93 1.642 1.692 2.288 1.86 4.255 3.211 6.617 4.862.395.3 1.344.591 1.564 1.094 1.355 1.389 2.489 2.275 3.904 3.562.71.906 1.23 1.29 2.113 2.151 4.185 4.057 8.098 7.514 12.357 11.45.963.955 1.58 1.431 2.408 2.493 7.243 10.191 14.275 19.797 21.351 29.895.267 1.18.723 1.629 1.532 2.245.118.407.654 1.064.693 1.778 3.902 9.165 8.082 17.49 11.508 26.114 2.036 5.126 4.857 6.773 10.35 5.262 3.198.58 5.941.73 9.495.982 1.355.127 1.899.153 2.981.474 2.154.323 3.772.35 5.828.398.439.02 1.317.034 1.89.477 4.291.459 8.009.475 11.807.359.081-.132.321-.328.466-.29s.434-.044.602.379.642 1.199 1.088 1.752c4.176 1.363 7.907 2.172 12.363 3.24 2.212.652 3.699 1.047 5.473 1.675.287.233.993.47.993.47s.744-.021 1.137.136c.392.158 1.2.404 1.698.84 2.209.76 3.921 1.083 6.147 1.856 3.546 1.516 6.576 2.58 10.002 4.046 1.468.694 2.54.988 4.095 1.745 4.161 2.181 7.841 3.899 11.985 6.08 3.991 2.291 7.517 4.12 11.452 6.455 3.451 2.145 6.493 3.783 9.541 5.478.006.056.115.082.176.465s.605.936.929 1.382c1.285.972 2.246 1.497 3.558 2.465 1.384.847 2.419 1.252 3.728 2.102.873.772 1.471 1.098 2.268 1.854.662.909 1.227 1.161 1.941 1.22.048.033.145-.033.249.446.478 1.042.975 1.458 1.902 2.209 1.354.881 2.399 1.281 3.711 2.194 1.425 1.497 2.583 2.481 4.03 4.065 3.304 3.182 6.319 5.764 9.463 8.854.885 1.186 1.641 1.863 2.656 3.135 3.514 4.114 6.769 7.632 10.117 11.645.8 1.144 1.506 1.793 2.285 2.746.073.305.594.651.547 1.019.148.916.535 1.165 1.119 1.3.004.185.356.303.439.887 1.234 2.182 2.385 3.78 3.585 5.906.584.939 1.12 1.352 1.847 2.252.725.903 1.257 1.319 1.995 2.225.472.723.737.957.98 1.553.192.903.584 1.114 1.121 1.202-.032.206.342.39.267.925.548 1.348 1.172 2.16 1.788 3.155-.007.184.343.295.372.766.242 1.13.685 1.545 1.468 2.221.324.779.537 1.051.713 1.762.168 1.096.613 1.417 1.295 1.484-.006.083.156.117.135.682.632 1.424 1.283 2.283 2.15 3.798.485 1.031.756 1.405.892 2.109-.014.891.333 1.161 1.047 1.716.353.91.567 1.243.747 2.241 1.755 4.067 3.542 7.47 5.522 11.651.412 1.265.631 1.752.697 2.533-.06.822.255 1.078 1.059 1.658.545.931.823 1.266.941 2.304 1.544 5.624 3.246 10.547 4.896 16.181.57 2.941 1.193 5.171 1.751 8.095.56 2.834 1.184 4.973 1.751 7.24-.059.128.159.304.117.903.155 1.376.352 2.152.423 3.423-.05.827.026 1.158.029 2.113.252 2.151.575 3.678 1.276 5.717.622.859.868 1.205.911 1.75-.444.773-.433 1.336-.443 2.461-1.981 2.427-2.467 4.215.021 6.765.036 12.932.045 24.952.058 37.573.076 1.397.15 2.194-.239 3.483-.826 2.208-1.189 3.925-1.598 6.303-.08 1.545-.112 2.428-.338 3.966-.362 2.004-.531 3.353-1.022 5.351-.495 3.034-.667 5.419-.921 7.849-.082.045-.046.229-.558.683-.868 2.696-1.225 4.938-1.974 7.788-2.993 9.029-5.593 17.449-8.556 26.309-.492.796-.622 1.153-1.145 1.666-.829.595-.987 1.118-1.286 2.249-.883 2.194-1.347 3.864-1.97 5.612-.159.078-.203.43-.72.591-.865 1.153-1.213 2.146-2.011 3.649-3.667 6.133-6.883 11.756-10.676 17.723-5.433 7.382-10.288 14.419-15.756 21.749-5.553 5.526-10.493 10.761-16.034 16.23-3.36 2.87-6.121 5.506-9.163 8.387-.282.244-.624.909-1.231 1.02-2.015 1.499-3.422 2.887-4.838 4.32-.009.045-.088.093-.654.174-1.369.8-2.172 1.519-3.051 2.235-.076-.003-.06.148-.712.342-9.498 5.741-18.343 11.29-28.193 17.468 3.803 1.957 6.135 3.088 8.405 4.334 16.299 8.945 32.897 17.4 48.769 27.049 11.019 6.698 21.035 15.049 31.752 23.186 1.406 1.56 2.559 2.596 3.997 4.181 2.068 1.481 3.851 2.413 5.916 3.778.723.962 1.164 1.492 1.687 2.448.404.99.89 1.252 1.666 1.321.129.11.334.377.393.78.365.938.824 1.17 1.58 1.215.143.118.377.404.433.802.359.928.813 1.154 1.564 1.195.146.121.385.412.438.809.354.926.806 1.15 1.558 1.192.148.124.395.421.456.823.374.937.837 1.157 1.591 1.153.141.092.38.328.464.746.42.97.908 1.204 1.661 1.205.112.086.286.309.41.882 1.786 2.174 3.449 3.775 5.504 5.908 3.103 3.377 5.815 6.222 8.743 9.699 6.084 8.039 11.952 15.446 17.739 22.959-.081.106.106.295.147.823.554.988 1.065 1.448 1.735 2.354.158.445.784 1.154.825 1.543.309.923.74 1.16 1.356 1.28.022.181.355.328.383.798.269 1.123.733 1.508 1.654 2.091.46.726.686.989.872 1.804.94 1.584 1.918 2.615 3.171 4.148.515.8.754 1.097.88 1.786.1 1.039.533 1.264 1.213 1.247.027.182.347.362.235.883.565 1.178 1.242 1.834 2.022 2.782.104.292.552.72.415 1.138-.021 1.095.377 1.473 1.252 2.087.391.857.589 1.18.672 1.924.054 1.108.491 1.42 1.551 1.942.622.954.887 1.325.979 2.006-.069.913.281 1.14.887 1.164.011.171.3.359.254 1.05 2.277 5.106 4.601 9.52 7.092 14.612 2.353 4.443 4.539 8.209 6.681 12.259-.045.285.312.737.174 1.267.411 1.425.959 2.321 1.633 3.75.308.85.491 1.166.598 2.178 1.761 4.865 3.6 9.034 5.559 13.961 2.054 6.351 3.988 11.946 5.865 18.165.594 2.114 1.245 3.604 1.87 5.189-.025.095.152.181.092.873.616 2.891 1.291 5.09 1.943 7.931.655 2.161 1.334 3.678 2.001 5.251-.013.056.099.08-.006.778.549 2.88 1.203 5.061 1.842 7.294-.013.051.081.099.043.809.615 2.925 1.268 5.14 2 7.828.08.473.272 1.414.163 2.103.433 2.459.975 4.229 1.499 6.339-.018.341.279.956.226 1.764.725 4.893 1.503 8.977 2.35 13.798.275 1.705.48 2.673.555 4.457 1.193 14.748 2.517 28.68 3.683 43.497-.132 5.031-.106 9.176-.141 14.26-.044 16.382-.028 31.827-.109 48.153-.116 6.221-.135 11.561-.257 17.566-.556 4.503-.895 8.358-1.483 12.175-2.113 13.727-4.311 27.442-6.882 41.734-.703 2.871-1.001 5.171-1.696 8.09-4.146 14.227-7.894 27.834-11.844 41.786-.202.344-.296 1.136-.7 1.42-.842.86-.935 1.487-.914 2.678-.267.887-.301 1.261-.753 2.001-.687 1.428-.958 2.49-1.469 3.98-.24.429-.184 1.41-.225 1.431s-.013.11-.463.452c-.686 1.424-.921 2.505-1.422 3.932-.265.347-.363 1.214-.844 1.725-4.304 9.737-8.128 18.964-12.314 28.665-.511.842-.66 1.211-1.187 1.701-.817.6-.821 1.08-.76 2.076-.559.892-.743 1.273-1.48 1.925-1.287 2.111-2.022 3.95-2.948 5.903-.19.113-.175.556-.732.839-2.319 3.747-4.079 7.211-5.88 10.7-.04.025-.062.118-.512.281-.956.674-1.088 1.268-1.005 2.029-.159.083-.147.443-.652.645-.874 1.188-1.244 2.173-1.724 3.208-.11.049-.017.271-.359.422-.746.528-.881.985-1.012 1.681-.266.16-.412.762-.85 1.008-.695 1.183-.951 2.121-1.541 3.286-.332.227-.596.988-1.152 1.239-1.372 1.602-2.189 2.954-3.521 4.728-3.558 4.814-6.6 9.204-10.107 13.759-1.045.627-1.246 1.22-1.213 1.999-.146.059-.115.372-.509.455-.904.411-1.119.876-1.38 1.809-.342.331-.617 1.242-1.135 1.529-1.353 1.564-2.186 2.839-3.441 4.513-.806 1.066-1.191 1.733-2.184 2.508-2.883 3.096-5.157 6.086-7.504 9.081-.074.005-.062.152-.634.392-2.675 2.716-4.779 5.192-7.07 7.726-.187.059-.314.43-.912.645-5.823 5.711-11.049 11.208-16.598 16.801-.323.097-.81.564-1.376.791-2.308 1.906-4.05 3.585-6.258 5.573-1.52 1.343-2.574 2.377-4.224 3.604-2.123 1.557-3.65 2.922-5.774 4.596-9.539 5.986-15.983 13.6-19.303 24.385-.885 1.513-1.39 2.574-2.401 3.953-1.348 2.1-2.189 3.882-3.324 5.941-.294.276-.606 1.02-1.061 1.277-.693.894-.931 1.53-1.629 2.574-1.333 2.203-2.207 3.999-3.611 6.155-.889 1.124-1.248 1.89-2.173 2.75-1.347 1.746-2.128 3.397-3.457 5.241-1.11.719-1.672 1.243-2.846 1.972-2.589 2.431-4.566 4.658-6.601 6.937-.058.051-.039.204-.781.182-1.935.757-3.127 1.535-4.732 2.484-.986.472-1.326.942-1.896 1.725-.463.146-1.269.688-1.803.775-1.607 1.031-2.68 1.974-4.238 3.045-.763.314-1.041.5-1.978.828-4.268 1.834-7.877 3.527-11.987 5.254-.817.144-1.133.253-1.929.303-.48-.058-1.444.026-2.072.003-1.458.075-2.287.172-3.53.401-.959.372-1.394.742-2.433 1.181-1.658.092-2.601.245-4.383.316-4.208-.023-7.577.035-11.623-.08-1.595-.33-2.512-.486-3.928-.914-1.625-.33-2.751-.387-4.466-.574-1.392-.156-2.195-.183-3.579-.204-.965.051-1.35.096-2.392-.047-1.55-.183-2.443-.18-3.622-.262-.286-.086-.873.012-1.16-.363-.778-.827-1.356-1.036-2.719-1.14-1.641-.178-2.586-.215-4.034-.416-.853-.107-1.201-.052-1.977-.382-1.541-.576-2.655-.766-4.143-1.085-.374-.129-1.161-.207-1.793-.23-1.053-.007-1.474.011-2.526-.063-1.472-.089-2.314-.086-3.663-.175-1.189-.128-1.871-.164-3.157-.578-2.455-.589-4.308-.8-6.6-1.435-2.215-.129-3.99.166-6.155.481-.389.02-1.157.149-1.755.093-1.656.428-2.713.913-4.427 1.491-1.232.73-1.81 1.367-2.764 1.928-.892-.065-1.394.024-2.258-.315-1.568-.722-2.76-.937-4.551-1.176-1.643.483-2.687.991-4.248 1.425-.853.022-1.188.117-2.141.164-1.744.399-2.871.844-4.348 1.446-.35.156-1.004.562-1.738.62-7.554 3.509-14.374 6.96-21.705 10.638-1.538 1.259-2.565 2.289-4.038 3.516-1.05.522-1.464 1.008-2.317 1.821-2.842 2.185-5.057 4.204-7.912 6.337-3.759 3.071-6.879 6.028-10.355 9.04-.356.055-.866.568-1.464.697-1.693 1.293-2.787 2.458-4.346 3.8-1.045.576-1.399 1.122-2.111 2.043-2.711 2.146-4.839 4.061-7.467 6.384-1.9 2.512-3.301 4.616-4.709 6.765-.008.046-.044-.024-.79-.038-3.298 2.116-5.85 4.244-9.022 6.661-8.096 6.355-15.571 12.422-23.638 18.68-2.888 1.913-5.186 3.634-8.068 5.441-1.55.743-2.516 1.401-4.036 2.142-1.405.758-2.257 1.433-3.185 2.095-.078-.013-.157.122-.671.174-1.04.479-1.567.905-2.441 1.444-.349.112-.944.538-1.604.571-3.022 1.15-5.384 2.266-8.392 3.479-3.458 1.127-6.27 2.156-9.686 3.325-.976.322-1.348.504-2.149.668-.43-.017-1.206.355-1.668.35s-1.363.197-1.907.096c-1.592.199-2.638.499-4.327.918-1.037.301-1.431.483-2.194.658-1.026.236-1.686.479-2.791.285-3.95-.091-7.455.254-11.822.583-6.691-.007-12.519.003-18.819-.171-.807-.196-1.143-.21-2.212-.287-1.712-.034-2.69-.006-4.323-.015-1.522.039-2.39.116-3.887.045-1.485-.13-2.342-.112-3.708-.529-2.238-.712-3.967-.99-6.501-1.309-2.95-.023-5.096-.005-7.877-.122-1.682.435-2.728 1.004-4.033 1.488-.601-.197-.953-.244-1.941-.757-2.149-1.03-3.671-1.532-5.687-2.281-1.579-.323-2.663-.4-4.371-.538-1.455-.076-2.287-.091-3.734-.233-1.448-.126-2.282-.125-3.645-.442-2.142-.521-3.755-.723-6.119-1.063-1.764-.154-2.778-.172-4.505-.302-2.143-.007-3.572.097-5.468-.265-1.737-.673-3.006-.88-5.02-1.138-2.207.133-3.669.317-5.955.373-4.699.015-8.574.159-13.009.091-1.727-.018-2.892.175-4.672.394-1.6.719-2.585 1.413-3.895 2.151-.325.045-.945.256-1.306-.205-1.464-.732-2.566-1.003-4.4-1.35-3.048.473-5.365 1.022-8.157 1.661-.475.09-1.394.392-1.814.34s-1.25.116-1.87.064c-1.748.384-2.877.82-4.418 1.424-.413.169-1.207.577-1.936.577-6.343 2.464-11.958 4.926-18.05 7.526-1.11.391-1.63.79-2.682 1.579-11.617 6.422-21.502 13.867-29.239 24.839-4.762 6.912-9.029 13.374-13.846 20.224-2.195 4.126-3.84 7.863-5.972 12.082-2.714 6.781-4.942 13.079-7.33 19.466-.161.087-.1.447-.578.818-.713 1.965-.948 3.558-1.562 5.744-.819 2.873-1.259 5.153-1.867 7.89-.167.458-.124 1.431-.182 1.454s-.11.134-.643.67c-1.382 6.876-2.231 13.216-3.229 20.174-.134 1.46-.118 2.303-.449 3.804-.338 3.119-.329 5.579-.494 8.613-.303 1.364-.432 2.153-.773 3.722-.045 2.911.121 5.041.333 7.822.14 1.517.234 2.382.111 4.001.303 3.735.823 6.716 1.229 10.403-.049 2.141.018 3.576.001 5.784.035 2.321.154 3.87.239 5.975.072 1.291.177 2.025.241 3.362.42 1.703.88 2.802 1.251 4.659.513 3.661 1.114 6.565 1.887 9.874.171.405.531 1.206.42 1.709-.054.842.004 1.181-.007 2.175.08 1.517.23 2.379.266 3.937.354 2.445.823 4.195 1.29 6.679a90 90 0 0 0 2.577 9.043c.203.265.791.584.807.665s.171.144-.24.531c-.47 1.117-.529 1.848-.511 3.112.208.868.338 1.203.374 2.088.394 1.449.882 2.348 1.368 3.33-.002.082.162.1.027.827.359 3.09.853 5.452 1.395 8.544.777 3.496 1.506 6.261 2.27 9.737.617 2.97 1.201 5.23 1.825 8.259 1.011 4.718 1.983 8.665 2.899 13.193.232 1.662.518 2.745.913 4.283.108.454.528 1.289.478 2 .612 2.909 1.274 5.108 1.994 7.357.057.049.163-.059.133.577.165 1.453.36 2.271.457 3.849.441 3.709.98 6.658 1.542 10.375.193 2.81.364 4.853.452 7.544.307 2.291.696 3.935 1.234 6.079.239.837.33 1.173.357 2.405-.126 6.865-.188 12.835-.426 19.371-.248.956-.321 1.345-.669 2.356-.382 2.899-.489 5.176-.668 8.156-.189 2.092-.305 3.481-.489 4.901-.068.03-.032.174-.536.628-2.768 6.138-5.032 11.823-7.708 17.842-.72.964-1.028 1.594-1.697 2.343-.8.502-.917.965-.958 1.653-.245.144-.442.678-.748.638-.714.177-.907.516-1.439 1.381-2.523 2.837-4.491 5.27-6.982 8.04-2.263 2.082-4.004 3.828-6.356 5.732-2.868 1.925-5.126 3.692-7.486 5.462-.103.003-.181.193-.78.31-2.302 1.198-4.005 2.278-6.356 3.534-3.43 1.561-6.211 2.947-9.629 4.396-2.171.717-3.705 1.371-5.83 2.071-1.368.186-2.145.326-3.565.431-1.864.287-3.084.608-4.632 1.098-.328.169-.898.643-1.572.626-1.57.033-2.465.083-4.228.034-4.351.043-7.835.185-11.975.175-1.549-.169-2.442-.186-3.786-.119-1.09.678-1.729 1.272-2.49 1.179-.32-1.106-.519-1.526-1.177-2.29-1.586-.497-2.712-.651-4.306-.878-.467-.074-1.413-.037-1.817-.146s-1.242-.127-1.359-.087c-.118.04-.285.224-.631-.337-2.043-.971-3.739-1.381-5.863-2.179-1.54-.637-2.652-.887-4.186-1.632-3.201-1.736-5.979-2.977-9.132-4.622-1.053-.651-1.732-.896-2.634-1.556-.682-.905-1.247-1.146-2.495-1.705-2.502-1.266-4.426-1.963-6.38-2.601-.03.059-.013.191-.152-.472-3.324-3.456-6.507-6.249-9.747-9.666-1.23-2.223-2.403-3.822-3.67-5.917-.349-.716-.603-.937-.928-1.692-.306-.809-.54-1.082-.927-1.896-.981-1.772-1.807-3.004-2.835-4.858-1.422-2.906-2.644-5.19-3.96-8.117-.763-2.197-1.432-3.751-2.161-5.94-.842-2.044-1.622-3.451-2.478-5.327-.074-.467-.288-1.391-.121-1.843s-.023-1.395.048-1.961c-.055-.923-.181-1.282-.245-2.356-.365-2.063-.791-3.411-1.208-5.168-.08-.953-.259-1.467-.343-2.66.162-1.687.14-2.662.255-4.508-.024-6.155-.185-11.44-.188-17.481-.042-2.261-.244-3.765.022-5.775.831-2.256 1.195-4.006 1.54-6.32-.074-1.314-.129-2.064-.127-3.525.017-1.184-.024-1.657.054-2.801.075-2.021.031-3.372.112-5.229.175-.849.226-1.192.75-1.85.658-1.4.843-2.487 1.21-4.122.176-.936.171-1.322.299-2.203.053-.829-.026-1.162.29-1.906.728-1.489 1.059-2.565 1.505-4.374.124-2.211.133-3.689.286-5.701.072-.896.001-1.258.169-1.948.24-.328.231-1.141.582-1.583.471-1.549.592-2.657.876-4.309.164-.922.164-1.3.351-2.369.18-1.642.173-2.594.397-3.753.231-.208.094-.815.438-1.305.43-1.669.515-2.848.795-4.565.192-.92.189-1.301.375-2.366.121-1.618.053-2.554.054-4-.075-.822-.219-1.134-.167-2.075.287-1.498.379-2.368.91-3.635.555-1.54.67-2.682.922-4.45.071-1.467.005-2.308.349-3.766.861-3.545 1.312-6.474 1.756-10.155-.022-2.261-.037-3.769.038-5.943.015-1.555-.059-2.442 0-3.991.047-1.548-.038-2.434.051-4.06.146-2.252.118-3.765.501-5.928 1.542-5.752 2.597-10.849-.84-16.086.231-1.484.226-2.353.399-3.883.093-1.568.008-2.474.054-4.109-.019-2.198-.169-3.668-.25-5.93-.02-2.379-.109-3.966-.132-6.151-.025-1.397-.116-2.195-.107-3.647-.487-2.269-1.074-3.884-1.547-6.178-.153-2.029-.421-3.378-.575-5.466.087-1.237.059-1.735.074-2.795-.051-1.303-.144-2.044-.177-3.374-.454-1.624-.968-2.658-1.379-4.297-.139-1.382-.383-2.159-.463-3.586.142-1.094.119-1.54.144-2.544-.56-1.472-1.166-2.387-1.621-3.766.151-.465-.084-1.414.019-1.941.002-.871-.099-1.215-.173-2.117-.106-.907-.239-1.255-.321-2.185-.361-1.632-.774-2.682-1.156-4.117.03-.385-.408-1.021-.318-1.557-.025-.88-.139-1.224-.264-2.153-.161-.946-.311-1.306-.434-2.201-.438-1.454-.903-2.373-1.234-3.787.017-.817-.1-1.139-.166-2.218-1.22-4.936-2.49-9.114-3.759-13.996-.799-2.877-1.597-5.051-2.371-7.999-2.696-8.244-5.418-15.713-8.211-23.919-3.342-8.249-6.613-15.762-10.009-23.959-2.149-4.221-4.174-7.757-6.276-11.888-1.043-2.3-2.007-4.008-3.133-6.411-2.151-4.057-3.975-7.531-6.166-10.757-6.032-8.881-12.226-17.649-22.52-23.26-5.262-2.981-10.217-5.373-15.661-8.12-1.668-.357-2.848-.361-4.377-.84-1.419-.9-2.488-1.324-4.254-1.866-1.638-.112-2.578-.106-3.982-.202-.464-.102-1.403.046-1.94-.396-2.349-.651-4.161-.86-6.544-1.162-1.338-.162-2.104-.231-3.35-.724-2.823-.268-5.167-.113-8.38.05-4.372.038-7.872.069-12.07-.033-4.228-.886-7.818-2.849-11.876.373-2.14.167-3.563.333-5.695.317-2.171-.13-3.633-.079-5.824-.156-3.049.351-5.37.831-8.405 1.283-2.122.241-3.527.509-5.728.638-2.406-.146-4.019-.154-6.304-.22-2.007.148-3.341.354-5.29.476-1.735.349-2.854.78-4.571 1.234-1.369.23-2.14.437-3.628.589-1.197-.047-1.676-.04-2.54-.063-.384-.031-1.155-.04-1.801-.14-2.261.44-3.874.979-6.014 1.537-.861.119-1.197.221-2.225.294-2.452.398-4.211.826-6.254 1.406-.285.153-.8.546-1.362.47-.932.001-1.302.077-2.223.17-.905.12-1.258.223-1.994.288-.382-.038-1.138.097-1.733.073-1.623.525-2.652 1.074-4.231 1.695-1.105.551-1.66 1.031-2.675 1.394-1.119-.194-1.723-.046-2.883.388-1.016.128-1.42.197-2.376.226-.913.042-1.273.125-2.38.284-16.619 5.004-32.168 10.587-45.158 22.087-.264.202-.575.789-1.166.895-1.356.94-2.121 1.776-3.383 3.061-10.735 8.061-18.284 17.845-24.242 29.682-.663 1.564-.873 2.724-1.157 3.915-.072.031-.029.183-.577.628-2.38 6.79-4.212 13.135-6.383 20.033-.423 2.281-.505 4.008-.781 6.489-.215 2.823-.236 4.891-.297 7.759.028 2.936.096 5.073.09 7.968.105 2.774.283 4.79.342 7.468.165 2.398.448 4.134.913 6.629.531 2.792.883 4.825 1.242 7.431.355 1.639.702 2.705 1.121 4.482.742 2.956 1.412 5.201 2.118 8.234 2.032 7.558 4.029 14.327 6.023 21.796.744 2.856 1.491 5.011 2.26 7.934 1.976 6.855 3.931 12.943 5.901 19.716.604 2.353 1.193 4.02 1.88 6.156.097.469.452 1.359.34 1.925.404 1.549.921 2.531 1.39 3.601-.048.087.11.207.039.95.79 4.113 1.65 7.482 2.451 11.511.473 2.295 1.003 3.929 1.543 6.371.326 3.48.641 6.151.951 9.423.52 1.664 1.045 2.727 1.486 4.265-.085.475-.04 1.444-.139 2.194.125 2.255.349 3.761.413 6.046.021 2.859.2 4.937.388 7.706.029 1.61.049 2.53-.179 4.29-.515 6.102-.781 11.364-1.455 17.129-.812 2.172-1.216 3.844-1.988 5.973-.639 1.579-.91 2.7-1.53 4.256-.935 1.386-1.522 2.335-2.686 3.512-2.755 2.139-4.933 4.05-7.749 6.167-2.761.873-4.884 1.54-7.789 2.112-2.352-.007-3.923.08-6.18-.001-2.095-.232-3.503-.297-5.176-.762-.788-.855-1.389-1.005-2.682-1.174-4.718-2.546-8.819-4.768-13.29-7.477-2.876-2.622-5.384-4.757-8.059-7.331-.505-1.02-1.006-1.368-1.848-2.071-1.46-2.163-2.741-3.738-4.134-5.963-1.277-2.496-2.443-4.343-3.651-6.684-.518-1.343-.995-2.191-1.61-3.804-1.858-6.18-3.578-11.596-5.421-17.648-.601-2.702-1.078-4.767-1.476-7.473.05-1.069.019-1.497.067-2.545.074-1.45.071-2.281.144-3.91-1.079-3.053-2.233-5.308-2.839-8.157.706-2.11.863-3.626 1.24-5.769.114-1.496.009-2.366.177-3.964.09-4.964-.093-9.201-.035-14.105.269-2.084.298-3.5.615-5.658.284-2.852.281-4.963.364-7.947.095-3.218.104-5.562.144-8.398-.152-1.442-.336-2.392-.416-3.966.038-1.456-.029-2.289.083-3.582.349-1.116.331-1.767.28-3.138.083-2.688.012-4.651.099-7.45.048-4.23-.062-7.625.006-11.74.099-2.199.019-3.678.017-6.04-.215-2.63-.508-4.376-.76-6.665-.293-1.939-.626-3.336-.991-5.384-.195-1.054-.358-1.457-.422-2.401.08-1.265.061-1.988.122-3.272-.265-1.612-.611-2.664-.994-4.24-.209-.827-.382-1.132-.503-1.921.051-.485-.138-1.442-.061-1.971-.201-1.173-.479-1.817-.86-2.683-.104-.22-.564-.058-.506-.801-.146-1.195-.351-1.647-.52-2.616-.127-.821-.289-1.125-.401-1.94-.262-1.111-.573-1.712-.752-2.506.132-.194-.165-.555-.232-1.379-4.813-11.332-9.56-21.839-14.499-32.993-4.925-6.614-9.657-12.579-14.577-19.089-1.589-1.8-2.99-3.056-4.796-4.869-3.257-2.843-6.109-5.13-9.259-7.938-2.675-2.014-5.052-3.506-7.885-5.498-4.127-2.18-7.8-3.86-11.49-5.618-.017-.078-.174-.11-.582-.615-2.871-1.327-5.335-2.149-8.244-3.339-1.56-.624-2.673-.881-4.196-1.278-.409-.138-1.271-.074-1.761-.234-.833-.175-1.177-.19-1.993-.434-.824-.238-1.174-.245-2.06-.609-2.216-.592-3.895-.829-6.062-1.105-.487-.039-1.461.049-2.133-.214-1.611-.465-2.55-.667-4.096-1.096-2.81-.296-5.011-.364-7.95-.508-2.214-.028-3.691.02-5.674.026-1.433.278-2.361.599-4.045.927-1.715.303-2.675.6-4.303.834-1.558.027-2.448.115-4.011.186-3.513.968-6.353 1.954-9.753 3.111-.897.366-1.235.561-2.293.758-3.607 1.517-6.493 3.032-9.798 4.663-.983.375-1.357.802-1.488 1.323.056-.072-.088-.184-.782-.1-8.037 4.858-16 8.97-19.996 17.911-.406.153-1.07.714-1.513.76-1.035.395-1.265.907-1.413 1.933-.28.352-.634 1.179-1.089 1.382-1.01.669-1.259 1.262-1.259 1.992-.058.009-.052.129-.508.3-1 .638-1.213 1.226-1.183 1.97-.088.037-.102.228-.539.354-.982.498-1.266 1.014-1.532 2.259-.958 2.049-1.67 3.513-2.841 5.502-3.47 8.917-6.481 17.308-9.964 26.16-.648 2.179-.825 3.897-1.075 6.09-.075.474.017 1.431-.303 1.798s-.718 1.257-1.054 1.859c-.398 2.424-.458 4.246-.643 6.676-.095 1.431-.065 2.256-.153 3.617-.085.902-.053 1.266-.177 2.041-.157.409-.466 1.231-.876 1.728-.524 2.198-.638 3.899-.793 6.198-.006.997.028 1.396-.008 2.458-.01 1.546.052 2.43-.061 4.213-.04 8.833.094 16.765.081 25.487.17 4.324.487 7.857 1.011 11.964.339.957.47 1.341.489 2.366.05 1.493.212 2.344.339 3.718.071.856.178 1.189.162 2.142-.084 1.464-.044 2.307-.134 3.865.258 3.042.645 5.37 1.247 8.136.214.439.643 1.312.618 1.856.074.894.174 1.244.205 2.206 0 1.428.07 2.243.056 3.728.336 2.353.754 4.036 1.37 6.113.196.394.542 1.204.429 1.734-.06.886-.009 1.243-.027 2.257.033 1.526.137 2.396.151 3.937.25 2.398.589 4.125 1.064 6.479.423 1.429.709 2.232.917 3.501-.078.466.206 1.367.127 2.035.388 2.326.856 3.984 1.815 6.021.905.392 1.318.405 1.189.387-.755.972-.967 1.974-1.253 3.629.065 1.511.205 2.37.241 3.899.43 2.271.964 3.87 1.515 5.549.017.079.064.234-.028.616-.091.382.129 1.137.155 1.701.134.922.241 1.28.245 2.112-.105.473.104 1.419.017 2.081.35 2.292.788 3.922 1.566 5.832.341.28 1.185.535 1.235.54.049.005.089.06-.25.597-.347 1.787-.356 3.037-.474 4.993.252 2.543.612 4.378 1.05 6.764.33 1.244.583 1.937.835 3.1 0 .47.22 1.383.096 2.102.285 2.568.694 4.419 1.228 6.592.125.323.545.878.516 1.578.208 1.6.444 2.499.544 3.935.227 1.473.59 2.41 1.024 3.474.071.127.294.315.16 1.08.583 4.195 1.3 7.624 2.022 11.8.734 3.518 1.464 6.29 2.214 9.575.103.848.185 1.181.137 1.998-.023.802.084 1.119.167 2.194 1.159 4.919 2.342 9.08 3.721 13.462.196.22.728.475.497.663s-.189.783-.409 1.139c-.363.938-.297 1.498-.016 2.794 1.217 5.016 2.426 9.272 3.667 14.221.762 2.771 1.492 4.849 2.361 7.416.26.805.379 1.123.284 2.094.304 2.343.823 4.032 1.356 6.42.704 2.827 1.394 4.955 2.142 7.564.058.48.48 1.351.414 1.962.387 1.684.842 2.757 1.398 4.273.102.442.568 1.223.505 1.958 1.171 4.345 2.404 7.956 3.686 12.253.874 2.798 1.699 4.909 2.428 7.631.383 1.692.862 2.773 1.389 4.465.353 1.363.658 2.115.922 3.586 1.798 5.441 3.637 10.163 5.609 15.645 2.732 7.095 5.331 13.429 8.019 20.392.65 2.228 1.21 3.829 1.8 5.929.197 1.17.545 1.729 1.181 2.788.994 1.932 1.88 3.251 3.014 4.963.249.393.602 1.254.482 1.741.277.984.674 1.482 1.254 2.393.183.412.473 1.266.373 1.745-.035 1.197.324 1.71 1.179 2.443.205.424.579 1.289.489 1.909.36 1.763.811 2.905 1.399 4.56.673 1.399 1.209 2.286 1.938 3.633.193.46.637 1.354.592 1.921.531 1.474 1.109 2.381 1.752 3.396.065.107.151.342.038.986.46 2.27 1.032 3.895 1.68 6.245 1.222 4.356 2.368 7.987 3.635 12.14.401 1.184.68 1.847 1.027 2.997.066.486.363 1.421.228 2.29.443 9.64 1.46 18.411 1.456 27.182-.002 6.466-1.338 12.931-2.157 19.546-.078.15-.273.426-.66.635-.752.711-.903 1.27-.933 2.381-.029.825.032 1.155-.127 1.8-.222.316-.413 1.064-.913 1.494-1.441 2.837-2.382 5.244-3.425 7.71-.102.058-.049.287-.46.528-.857.775-.981 1.377-1.019 2.561-.779 1.041-1.322 1.566-2.369 2.38-1.435 1.902-2.366 3.514-3.417 5.175-.12.049-.102.307-.736.507-9.615 7.935-19.37 14.091-31.524 15.363M2221.376 735.766c-13.373-40.606-33.913-76.95-66.269-105.363-54.397-47.767-117.083-66.098-188.277-48.583-70.037 17.23-125.231 56.83-165.24 116.411-49.527 73.754-62.742 155.362-46.227 241.809 10.504 54.982 37.511 101.115 82.393 135.24 66.048 50.218 140.491 60.719 218.885 39.164 75.003-20.622 125.987-70.731 154.892-142.021 31.117-76.746 32.994-155.605 9.843-236.657M508.308 414.679c-4.092-10.909-8.247-21.796-12.264-32.732-12.74-34.684-25.204-69.47-38.192-104.06-16.452-43.814-65.554-54.39-98.364-20.975-6.875 7.002-12.428 15.667-17.162 24.345-27.264 49.989-54.325 100.091-81.025 150.383-40.753 76.762-81.124 153.727-121.736 230.563-7.275 13.764-11.863 28.207-12.309 43.825-.693 24.247 6.588 45.315 25.395 61.441 3.18 2.726 7.148 5.189 11.148 6.195 28.683 7.211 56.756-3.54 73.499-27.981 3.372-4.921 6.119-10.301 8.848-15.626 7.432-14.497 14.7-29.077 21.624-42.814L465.6 674.7c1.355 3.267 2.916 6.884 4.363 10.547 4.648 11.764 8.884 23.706 13.954 35.283 9.206 21.023 27.938 30.661 50.461 26.085 23.437-4.762 41.286-18.202 54.555-37.571 15.134-22.091 18.114-45.348 7.77-70.984-29.769-73.78-58.623-147.931-88.395-223.381M273.22 1090.095c-7.294-4.622-15.208-8.501-21.78-13.988-40.954-34.189-43.432-99.271-5.45-139.311 20.849-21.979 46.81-34.618 76.133-41.253 33.01-7.469 62.996-1.127 89.529 19.553 36.166 28.191 88.743 6.157 102.364-31.695 6.775-18.824 2.504-36.802-12.94-49.694-8.122-6.779-17.165-12.697-26.46-17.785-27.669-15.143-57.787-22.009-89.03-23.79-47.941-2.733-94.281 5.407-139.016 22.51-36.535 13.967-69.409 33.913-96.612 62.36-30.988 32.405-50.028 70.446-52.406 115.768-2.674 50.991 10.372 97.041 44.722 135.86 23.049 26.046 51.777 43.78 84.34 55.302 44.004 15.57 89.368 20.609 135.804 16.279 44.616-4.159 85.886-17.853 122.998-43.31 20.547-14.095 32.067-32.853 32.367-58.545.4-34.308 1.726-68.611 3.067-102.9.649-16.61-6.255-28.959-19.469-38.161-12.17-8.475-25.886-12.048-40.63-11.452-14.644.591-29.276 1.511-43.917 2.212-27.954 1.337-55.935 2.256-83.859 4.048-20.661 1.326-38.002 9.816-49.653 27.584-16.307 24.87-7.423 54.645 19.664 66.868 9.271 4.185 19.025 5.919 29.162 5.719 20.653-.409 41.306-.823 61.96-1.173 2.513-.042 5.032.302 7.551.467 0 9.453-.285 18.096.098 26.71.263 5.893-1.995 9.112-7.463 11.253-39.783 15.575-79.63 17.589-121.074.564m926.689-109.215c7.02 2.07 14.215 3.692 21.004 6.352 5.511 2.159 10.942 5.016 15.671 8.55 6.426 4.802 8.584 11.226 5.587 19.423-3.709 10.146-9.396 18.691-19.023 23.474-7.965 3.957-16.466 7.788-25.134 9.211-38.663 6.351-75.649.947-110.004-18.642-13.108-7.474-26.982-10.415-41.332-5.914-27.444 8.608-46.21 25.894-51.229 55.462-3.997 23.548 3.335 42.682 22.82 56.809 13.891 10.071 29.316 17.138 45.598 22.294 41.094 13.013 83.063 15.125 125.523 9.181 31.954-4.472 62.596-13.434 90.41-30.166 61.744-37.143 90.699-91.978 86.134-163.865-2.165-34.104-18.15-60.779-47.206-79.274-14.186-9.029-29.512-15.812-45.791-19.468-24.339-5.466-49.023-9.375-73.478-14.352-17.908-3.644-36.081-6.704-53.409-12.283-18.199-5.859-21.6-21.264-9.423-36.189 3.09-3.787 7.094-7.194 11.351-9.573 5.759-3.219 11.957-6.136 18.332-7.688 31.681-7.713 62.748-6.478 92.57 8.009 10.547 5.123 21.464 6.731 33.026 4.38 26.686-5.424 49.719-29.424 54.088-56.557 4.039-25.084-5.291-45.663-27.781-57.879-10.736-5.831-22.338-10.548-34.075-13.957-27.618-8.023-55.908-8.227-84.23-4.269-46.814 6.544-89.514 23.406-126.728 52.771-36.893 29.111-60.474 66.156-64.406 114.032-4.096 49.884 13.764 86.854 59.942 107.874 14.15 6.441 29.176 11.602 44.323 15.073 28.219 6.466 56.82 11.262 86.87 17.181m-512.327-6.041c1.236-36.309 2.533-72.615 3.681-108.927.505-15.988 1.261-31.999.912-47.977-.499-22.915-15.269-39.133-37.587-44.182-32.803-7.421-84.572 17.12-85.446 66.597-1.153 65.309-4.462 130.578-6.249 195.881-.982 35.862 9.125 68.442 32.291 96.431 16.94 20.465 37.97 35.551 62.45 45.408 67.544 27.198 134.356 23.82 199.392-7.864 49.651-24.188 85.453-61.841 103.981-114.691 7.808-22.275 10.208-45.383 10.931-68.816 1.697-54.968 3.68-109.927 5.435-164.893.468-14.653 1.301-29.355.609-43.97-1.149-24.283-17.907-41.424-41.263-43.954-37.8-4.095-79.769 26.763-81.249 68.14-.942 26.312-2.031 52.619-2.939 78.932-1.493 43.302-2.843 86.609-4.352 129.911-.798 22.891-10.544 41.357-29.541 53.962-30.703 20.37-63.963 23.797-98.298 10.89-23.614-8.878-34.821-26.799-34.371-51.966.28-15.66 1.021-31.311 1.613-48.912m751.22-420.882c5.027-2.605 10.13-5.074 15.067-7.84 23.166-12.98 44.087-28.747 60.721-49.697 16.779-21.131 28.061-44.916 29.277-71.998 2.691-59.916 4.242-119.882 6.317-179.826.677-19.536-8.118-34.098-24.003-44.375-17.998-11.643-37.762-14.464-58.454-8.862-25.816 6.99-39 24.03-39.878 50.584-1.925 58.285-3.947 116.566-5.863 174.85-.611 18.573-8.024 33.895-23.266 44.303-32.933 22.488-69 27.378-106.714 15.019-22.627-7.414-32.84-23.39-32.256-47.241.872-35.643 2.243-71.273 3.398-106.909.908-27.976 2.157-55.947 2.609-83.93.376-23.285-12.618-40.808-34.728-48.255a71 71 0 0 0-11.616-2.86c-32.489-5.071-73.893 16.289-76.331 58.315a759 759 0 0 0-.814 17.972c-1.219 35.634-2.45 71.267-3.596 106.904-.9 27.975-2.414 55.956-2.364 83.932.104 57.806 30.408 100.527 84.633 120.752 27.58 10.286 56.29 13.733 85.475 12.378 45.78-2.126 89.454-13.277 132.386-33.216m34.29 222.007c13.09-1.074 26.02-4.246 39.683-4.072 0 3.366.065 5.651-.01 7.932-.697 21.319-1.436 42.636-2.129 63.955-2.402 73.952-4.817 147.903-7.137 221.858-.188 5.977-.149 12.03.56 17.955 2.959 24.742 20.59 42.842 45.111 46.723 30.721 4.861 61.781-13.521 72.512-43.965 3.154-8.945 4.453-18.808 5.027-28.345 1.322-21.951 1.693-43.959 2.42-65.945 2.453-74.285 4.888-148.571 7.354-222.856.129-3.901.475-7.796.727-11.811 2.455-.539 4.022-1.047 5.625-1.21 21.214-2.166 42.442-4.211 63.648-6.456 6.614-.701 13.32-1.341 19.736-2.98 39.004-9.963 58.661-50.06 52.854-84.201-6.005-35.308-33.23-49.454-61.712-45.348-38.576 5.561-77.378 9.537-116.003 14.78-55.778 7.573-111.458 15.869-167.232 23.473-31.886 4.347-57.526 29.51-63.3 62.253-6.171 34.997 15.279 69.68 59.857 63.724 13.537-1.809 27.084-3.533 42.409-5.464M776.583 341.836c28.589-3.28 57.017-8.077 86.214-10.449 0 3.935.075 6.549-.012 9.158-.777 23.313-1.594 46.624-2.378 69.936-1.916 56.949-3.847 113.896-5.708 170.847-.381 11.655-1.018 23.338-.605 34.976.896 25.25 17.71 41.4 42.876 41.93 33.652.709 68.423-24.337 78.035-56.572a71 71 0 0 0 2.886-17.668c2.983-85.92 5.771-171.847 8.642-257.771.118-3.519.596-7.027.915-10.645 3.662-.571 6.256-1.068 8.872-1.367 23.827-2.723 47.725-4.924 71.469-8.236 27.293-3.807 48.324-17.166 58.445-43.81 11.434-30.102-5.081-59.771-36.603-66.406-6.755-1.422-13.892-1.683-20.821-1.466-11.311.354-22.606 1.429-33.89 2.394-44.143 3.776-88.29 7.51-132.415 11.488-39.815 3.59-79.634 7.176-119.392 11.332-32.397 3.386-55.98 25.316-62.116 57.343-6.77 35.334 15.079 68.042 55.586 64.986m910.702 6.521c-12.494 19.128-19.175 40.05-20.039 62.937-2.976 78.851 69.478 139.781 146.647 123.206 59.24-12.725 98.906-64.632 96.261-125.967-2.661-61.695-55.435-113.442-117.07-114.531-44.286-.782-79.188 17.29-105.799 54.355m391.357 43.549c34.704-15.259 64.078-53.439 56.942-104.6-7.733-55.44-61.463-92.465-117.344-81.401-54.314 10.754-89.177 66.745-75.164 120.612 15.417 59.263 79.112 89.558 135.566 65.389M1875.743 76.4c-3.641-.347-7.275-.873-10.924-1.012-50.399-1.926-88.653 40.991-81.054 90.883 6.091 39.995 41.862 68.166 83.45 65.722 39.07-2.297 71.348-36.01 72.595-75.641 1.131-35.943-22.99-71.083-64.067-79.952"/><path fill="#FEFFFF" d="M2221.602 736.53c22.925 80.288 21.048 159.147-10.07 235.893-28.904 71.29-79.888 121.399-154.891 142.021-78.394 21.555-152.837 11.054-218.885-39.164-44.882-34.125-71.889-80.258-82.393-135.24-16.515-86.447-3.3-168.055 46.227-241.81 40.01-59.58 95.203-99.18 165.24-116.41 71.194-17.515 133.88.816 188.277 48.583 32.356 28.413 52.896 64.757 66.495 106.128m-149.039 3.867c-20.005-17.201-43.274-26.252-69.58-26.065-39.475.281-72.125 16.528-96.23 47.204-36.344 46.247-43.77 98.785-25.396 153.88 17.475 52.397 68.594 81.793 123.224 72.87 49.659-8.11 81.89-37.887 99.171-84.185 10.816-28.977 12.726-59.181 7.743-89.64-4.645-28.392-16.265-53.402-38.932-74.064M508.587 415.402c29.493 74.727 58.347 148.878 88.116 222.658 10.344 25.636 7.364 48.893-7.77 70.984-13.27 19.369-31.118 32.809-54.555 37.57-22.523 4.577-41.255-5.061-50.46-26.084-5.07-11.577-9.307-23.52-13.955-35.283-1.447-3.663-3.008-7.28-4.363-10.547l-197.83 12.543c-6.924 13.737-14.192 28.317-21.624 42.814-2.73 5.325-5.476 10.705-8.848 15.626-16.743 24.44-44.816 35.192-73.499 27.98-4-1.005-7.968-3.468-11.148-6.194-18.807-16.126-26.088-37.194-25.395-61.441.446-15.618 5.034-30.061 12.309-43.825 40.612-76.836 80.983-153.8 121.736-230.563 26.7-50.292 53.761-100.394 81.025-150.383 4.734-8.678 10.287-17.343 17.162-24.345 32.81-33.415 81.912-22.84 98.364 20.975 12.988 34.59 25.452 69.376 38.192 104.06 4.017 10.936 8.172 21.823 12.543 33.455m-150.982 93.06c-2.774 5.315-5.605 10.602-8.306 15.953-2.766 5.48-5.404 11.024-8.844 18.068l72.918-2.207-27.628-85.6c-9.915 18.898-18.716 35.674-28.14 53.786"/><path fill="#FDFFFF" d="M273.91 1090.405c40.754 16.715 80.601 14.701 120.384-.874 5.468-2.14 7.726-5.36 7.463-11.253-.383-8.614-.098-17.257-.098-26.71-2.52-.165-5.038-.51-7.55-.467-20.655.35-41.308.764-61.961 1.173-10.137.2-19.89-1.534-29.162-5.719-27.087-12.223-35.97-41.998-19.664-66.868 11.65-17.768 28.992-26.258 49.653-27.584 27.924-1.792 55.905-2.71 83.86-4.048 14.64-.7 29.272-1.62 43.916-2.212 14.744-.596 28.46 2.977 40.63 11.452 13.214 9.202 20.118 21.55 19.469 38.16-1.34 34.29-2.667 68.593-3.067 102.901-.3 25.692-11.82 44.45-32.367 58.545-37.112 25.457-78.382 39.15-122.998 43.31-46.436 4.33-91.8-.709-135.804-16.279-32.563-11.522-61.291-29.256-84.34-55.302-34.35-38.82-47.396-84.869-44.722-135.86 2.378-45.322 21.418-83.363 52.406-115.768 27.203-28.447 60.077-48.393 96.612-62.36 44.735-17.103 91.075-25.243 139.016-22.51 31.243 1.781 61.36 8.647 89.03 23.79 9.295 5.088 18.338 11.006 26.46 17.785 15.444 12.892 19.715 30.87 12.94 49.694-13.621 37.852-66.198 59.886-102.364 31.695-26.533-20.68-56.519-27.022-89.53-19.553-29.322 6.635-55.283 19.274-76.132 41.253-37.982 40.04-35.504 105.122 5.45 139.311 6.572 5.487 14.486 9.366 22.47 14.298"/><path fill="#FEFFFF" d="M1199.105 980.666c-29.246-5.705-57.847-10.501-86.066-16.967-15.147-3.47-30.173-8.632-44.323-15.073-46.178-21.02-64.038-57.99-59.942-107.874 3.932-47.876 27.513-84.92 64.406-114.032 37.214-29.365 79.914-46.227 126.728-52.77 28.322-3.96 56.612-3.755 84.23 4.268 11.737 3.41 23.34 8.126 34.075 13.957 22.49 12.216 31.82 32.795 27.781 57.88-4.369 27.132-27.402 51.132-54.088 56.556-11.562 2.35-22.48.743-33.026-4.38-29.822-14.487-60.889-15.722-92.57-8.009-6.375 1.552-12.573 4.47-18.332 7.688-4.257 2.379-8.261 5.786-11.35 9.573-12.178 14.925-8.777 30.33 9.422 36.19 17.328 5.578 35.5 8.638 53.409 12.282 24.455 4.977 49.139 8.886 73.478 14.352 16.28 3.656 31.605 10.439 45.79 19.468 29.057 18.495 45.042 45.17 47.207 79.274 4.565 71.887-24.39 126.722-86.134 163.865-27.814 16.732-58.456 25.694-90.41 30.166-42.46 5.944-84.429 3.832-125.523-9.18-16.282-5.157-31.707-12.224-45.598-22.295-19.485-14.127-26.817-33.26-22.82-56.81 5.019-29.567 23.785-46.853 51.23-55.46 14.35-4.502 28.223-1.56 41.331 5.913 34.355 19.589 71.341 24.993 110.004 18.642 8.668-1.423 17.17-5.254 25.134-9.21 9.627-4.784 15.314-13.329 19.023-23.475 2.997-8.197.84-14.62-5.587-19.423-4.729-3.534-10.16-6.391-15.67-8.55-6.79-2.66-13.985-4.282-21.81-6.566"/><path fill="#FDFFFF" d="M687.554 975.812c-.564 16.628-1.305 32.28-1.585 47.939-.45 25.167 10.757 43.088 34.371 51.966 34.335 12.907 67.595 9.48 98.298-10.89 18.997-12.605 28.743-31.071 29.54-53.962 1.51-43.302 2.86-86.609 4.353-129.911.908-26.313 1.997-52.62 2.939-78.932 1.48-41.377 43.449-72.235 81.25-68.14 23.355 2.53 40.113 19.671 41.262 43.954.692 14.615-.141 29.317-.61 43.97-1.754 54.966-3.737 109.925-5.434 164.893-.723 23.433-3.123 46.54-10.931 68.816-18.528 52.85-54.33 90.503-103.981 114.691-65.036 31.684-131.848 35.062-199.392 7.864-24.48-9.857-45.51-24.943-62.45-45.408-23.166-27.989-33.273-60.57-32.291-96.431 1.787-65.303 5.096-130.572 6.25-195.881.873-49.477 52.642-74.018 85.445-66.597 22.318 5.049 37.088 21.267 37.587 44.182.349 15.978-.407 31.989-.912 47.977-1.148 36.312-2.445 72.618-3.71 109.9M1438.12 554.261c-42.25 19.635-85.924 30.786-131.704 32.912-29.185 1.355-57.895-2.092-85.475-12.378-54.225-20.225-84.529-62.946-84.633-120.752-.05-27.976 1.464-55.957 2.364-83.932 1.146-35.637 2.377-71.27 3.596-106.904.205-5.993.467-11.986.814-17.972 2.438-42.026 43.842-63.386 76.331-58.315a71 71 0 0 1 11.616 2.86c22.11 7.447 35.104 24.97 34.728 48.255-.452 27.983-1.701 55.954-2.609 83.93-1.155 35.636-2.526 71.266-3.398 106.91-.584 23.85 9.629 39.826 32.256 47.24 37.714 12.359 73.781 7.47 106.714-15.02 15.242-10.407 22.655-25.73 23.266-44.302 1.916-58.284 3.938-116.565 5.863-174.85.878-26.554 14.062-43.594 39.878-50.584 20.692-5.602 40.456-2.78 58.454 8.862 15.885 10.277 24.68 24.84 24.003 44.375-2.075 59.944-3.626 119.91-6.317 179.826-1.216 27.082-12.498 50.867-29.277 71.998-16.634 20.95-37.555 36.717-60.721 49.697-4.937 2.766-10.04 5.235-15.749 8.144M1472.2 776.048c-14.433 1.847-27.98 3.571-41.517 5.38-44.578 5.956-66.028-28.727-59.857-63.724 5.774-32.743 31.414-57.906 63.3-62.253 55.774-7.604 111.454-15.9 167.232-23.473 38.625-5.243 77.427-9.22 116.003-14.78 28.482-4.106 55.707 10.04 61.712 45.348 5.807 34.141-13.85 74.238-52.854 84.2-6.416 1.64-13.122 2.28-19.736 2.98-21.206 2.246-42.434 4.29-63.648 6.457-1.603.163-3.17.67-5.625 1.21-.252 4.015-.598 7.91-.727 11.811-2.466 74.285-4.9 148.571-7.354 222.856-.727 21.986-1.098 43.994-2.42 65.945-.574 9.537-1.873 19.4-5.027 28.345-10.731 30.444-41.791 48.826-72.512 43.965-24.52-3.88-42.152-21.981-45.111-46.723-.709-5.925-.748-11.978-.56-17.955 2.32-73.955 4.735-147.906 7.137-221.858.693-21.319 1.432-42.636 2.13-63.955.074-2.28.01-4.566.01-7.932-13.664-.174-26.594 2.998-40.575 4.156M775.662 341.902c-39.586 2.99-61.435-29.718-54.665-65.052 6.136-32.027 29.72-53.957 62.116-57.343 39.758-4.156 79.577-7.742 119.392-11.332 44.125-3.978 88.272-7.712 132.415-11.488 11.284-.965 22.579-2.04 33.89-2.394 6.929-.217 14.066.044 20.82 1.466 31.523 6.635 48.038 36.304 36.604 66.406-10.12 26.644-31.152 40.003-58.445 43.81-23.744 3.312-47.642 5.513-71.469 8.236-2.616.299-5.21.796-8.872 1.367-.32 3.618-.797 7.126-.915 10.645-2.87 85.924-5.659 171.851-8.642 257.771a71.1 71.1 0 0 1-2.886 17.668c-9.612 32.235-44.383 57.28-78.035 56.572-25.166-.53-41.98-16.68-42.876-41.93-.413-11.638.224-23.321.605-34.976 1.86-56.95 3.792-113.898 5.708-170.847.784-23.312 1.6-46.623 2.378-69.936.087-2.609.012-5.223.012-9.158-29.197 2.372-57.625 7.17-87.135 10.515"/><path fill="#FEFFFF" d="M1687.678 347.753c26.218-36.46 61.12-54.533 105.406-53.75 61.635 1.088 114.41 52.835 117.07 114.53 2.645 61.335-37.021 113.242-96.26 125.967-77.17 16.575-149.624-44.355-146.648-123.206.864-22.887 7.545-43.809 20.432-63.541"/><path fill="#FD547E" d="M2077.93 392.179c-55.742 23.896-119.437-6.4-134.854-65.662-14.014-53.867 20.85-109.858 75.164-120.612 55.88-11.064 109.611 25.961 117.344 81.401 7.136 51.161-22.238 89.341-57.654 104.873"/><path fill="#FCCA50" d="M1876.595 76.6c40.225 8.669 64.346 43.809 63.215 79.752-1.247 39.63-33.525 73.344-72.595 75.64-41.588 2.445-77.359-25.726-83.45-65.72-7.599-49.893 30.655-92.81 81.054-90.884 3.649.14 7.283.665 11.776 1.212"/><path fill="#01C6DA" d="M357.916 507.794c9.113-17.444 17.914-34.22 27.829-53.118l27.628 85.6-72.918 2.207c3.44-7.044 6.078-12.588 8.844-18.068 2.7-5.351 5.532-10.638 8.617-16.62M2073.093 740.87c22.137 20.19 33.757 45.2 38.402 73.591 4.983 30.46 3.073 60.664-7.743 89.641-17.282 46.298-49.512 76.076-99.17 84.186-54.631 8.922-105.75-20.474-123.225-72.871-18.375-55.095-10.948-107.633 25.395-153.88 24.106-30.676 56.756-46.923 96.23-47.204 26.307-.187 49.576 8.864 70.111 26.536"/></svg>