<?xml version="1.0" encoding="UTF-8"?>
<svg version="1.1" xmlns="http://www.w3.org/2000/svg" width="2359" height="1918">
<path d="M0 0 C2.04839394 1.86359318 4.07508092 3.7488285 6.09375 5.64453125 C8.34723926 7.74215958 10.63808914 9.74855985 12.9921875 11.73046875 C33.60898862 29.75956438 48.86484735 56.55347283 57.8046875 82.16796875 C57.8046875 82.82796875 57.8046875 83.48796875 57.8046875 84.16796875 C58.81402344 84.1215625 59.82335938 84.07515625 60.86328125 84.02734375 C103.79985615 82.70029614 148.12854714 100.21083285 181.8046875 126.16796875 C182.805 126.93753906 183.8053125 127.70710937 184.8359375 128.5 C206.42321005 145.71398889 224.38351 165.99652248 237.8046875 190.16796875 C238.24699707 190.9583252 238.68930664 191.74868164 239.14501953 192.56298828 C265.79213469 240.56461368 271.97117955 296.31968545 257.53515625 349.3359375 C253.22391958 364.30958637 247.16909062 378.46128137 239.8046875 392.16796875 C238.90169922 393.90046875 238.90169922 393.90046875 237.98046875 395.66796875 C219.61531464 429.54917549 187.29089077 462.72210412 151.8046875 478.16796875 C152.37687012 478.41853027 152.94905273 478.6690918 153.53857422 478.92724609 C184.7953127 492.68670074 212.60069947 510.32584606 238.8046875 532.16796875 C239.41876465 532.67618164 240.0328418 533.18439453 240.66552734 533.70800781 C262.78527787 552.0564634 281.33370607 573.70371839 297.56494141 597.37451172 C299.14918905 599.66633591 300.7930851 601.91334866 302.4296875 604.16796875 C313.93684162 620.67459031 323.54782644 638.94201341 330.82861328 657.67822266 C331.91071584 660.43842322 333.02772204 663.18335417 334.14453125 665.9296875 C347.43729098 699.03857765 356.20370344 733.80204548 360.8046875 769.16796875 C361.05694595 771.09116188 361.05694595 771.09116188 361.31430054 773.0532074 C362.71881832 784.32739629 363.13102974 795.44376018 363.140625 806.796875 C363.14708723 808.64265535 363.15381779 810.48843479 363.16079712 812.33421326 C363.17267209 816.18401448 363.17648875 820.03372672 363.17529297 823.88354492 C363.1751315 827.75483097 363.18886385 831.62563833 363.21630859 835.49682617 C363.88919016 931.92845984 335.90621681 1027.87277684 272.8046875 1102.16796875 C271.9203703 1103.22639325 271.03626807 1104.28499738 270.15234375 1105.34375 C258.09099807 1119.70190578 245.66422024 1133.1853494 230.77148438 1144.64501953 C228.74784255 1146.21198549 226.75082601 1147.80836502 224.7578125 1149.4140625 C223.48203852 1150.43653202 222.2060079 1151.4586814 220.9296875 1152.48046875 C220.3404248 1152.95532715 219.75116211 1153.43018555 219.14404297 1153.91943359 C215.03362663 1157.16796875 215.03362663 1157.16796875 212.8046875 1157.16796875 C212.58425781 1157.95300781 212.36382813 1158.73804688 212.13671875 1159.546875 C210.37377361 1164.33939743 207.97155401 1168.65051139 205.4921875 1173.10546875 C204.7815918 1174.40774414 204.7815918 1174.40774414 204.05664062 1175.73632812 C201.88049397 1179.67482612 199.66772512 1183.47348279 197.01171875 1187.109375 C194.69507415 1189.9990001 194.69507415 1189.9990001 193.8046875 1193.16796875 C193.1446875 1193.16796875 192.4846875 1193.16796875 191.8046875 1193.16796875 C191.55332031 1193.90660156 191.30195313 1194.64523437 191.04296875 1195.40625 C184.90945959 1209.0857168 166.25724353 1219.02686454 152.8046875 1224.16796875 C135.34030053 1230.05956917 117.47024429 1226.68108007 99.8046875 1223.66796875 C96.80253895 1223.16317414 93.79985216 1222.66250094 90.7956543 1222.17004395 C88.94558197 1221.86611137 87.09666487 1221.55501987 85.24926758 1221.23522949 C67.10198037 1218.22682331 45.90372478 1221.17658846 29.8046875 1230.16796875 C29.18899902 1230.51069824 28.57331055 1230.85342773 27.93896484 1231.20654297 C12.98357655 1239.67767301 0.1115073 1250.78586401 -12.36328125 1262.515625 C-15.89742674 1265.82553505 -19.53087075 1269.00430755 -23.1953125 1272.16796875 C-24.4040792 1273.2299757 -25.61239236 1274.29249903 -26.8203125 1275.35546875 C-28.27834531 1276.62664687 -29.73672331 1277.89742908 -31.1953125 1279.16796875 C-31.91001709 1279.79614502 -31.91001709 1279.79614502 -32.63916016 1280.43701172 C-66.91385664 1310.52694514 -99.57397949 1327.53341015 -146.25317383 1324.77001953 C-161.47790659 1323.68711311 -176.63753771 1321.80337301 -191.78222656 1319.93310547 C-230.20688357 1315.23294712 -267.87733126 1315.36004307 -300.5078125 1339.16796875 C-301.74719775 1340.15527564 -302.97632305 1341.15558768 -304.1953125 1342.16796875 C-304.88625 1342.71453125 -305.5771875 1343.26109375 -306.2890625 1343.82421875 C-334.14490298 1366.97202985 -347.83040311 1406.96097892 -351.48754883 1441.96508789 C-355.55239078 1486.55528206 -345.56356965 1530.24683878 -335.8659668 1573.46166992 C-322.06406729 1635.30192834 -322.06406729 1635.30192834 -329.1953125 1664.16796875 C-329.45054688 1665.21339844 -329.70578125 1666.25882813 -329.96875 1667.3359375 C-335.45678362 1686.39300837 -350.69641049 1702.58059527 -367.68359375 1712.2109375 C-387.56798199 1722.58443926 -408.5593147 1725.31449967 -430.11865234 1718.56591797 C-451.11709921 1711.48152915 -468.57319703 1696.72227018 -478.51464844 1676.87280273 C-482.03656412 1669.51701631 -484.78779549 1662.24083488 -486.1953125 1654.16796875 C-486.37578125 1653.18441406 -486.55625 1652.20085937 -486.7421875 1651.1875 C-489.53926376 1630.65523812 -486.72125759 1609.37923605 -483.1953125 1589.16796875 C-483.07698059 1588.48802856 -482.95864868 1587.80808838 -482.83673096 1587.10754395 C-482.32917711 1584.19134057 -481.82053299 1581.27533029 -481.31033325 1578.35958862 C-479.90118289 1570.30188555 -478.52468743 1562.23922751 -477.1953125 1554.16796875 C-477.0101709 1553.05292969 -476.8250293 1551.93789062 -476.63427734 1550.7890625 C-471.48568771 1518.3062358 -471.88532792 1482.59254777 -477.1953125 1450.16796875 C-477.36691895 1449.04986816 -477.53852539 1447.93176758 -477.71533203 1446.77978516 C-484.49867734 1402.95779834 -498.47455205 1358.60216351 -522.27832031 1320.90600586 C-523.27445804 1319.01795888 -523.75974761 1317.25119219 -524.1953125 1315.16796875 C-524.8553125 1315.16796875 -525.5153125 1315.16796875 -526.1953125 1315.16796875 C-527.030625 1313.62109375 -527.030625 1313.62109375 -527.8828125 1312.04296875 C-535.92635019 1298.15464589 -550.16460233 1289.42152084 -565.44091797 1285.31152344 C-577.28701713 1282.33950423 -588.76213107 1281.96339403 -600.8828125 1281.98046875 C-601.67398468 1281.981073 -602.46515686 1281.98167725 -603.28030396 1281.9822998 C-659.16715358 1282.09727169 -721.25410735 1287.34370416 -762.796875 1328.76171875 C-780.79309105 1347.68221176 -785.99346228 1371.40903085 -785.5 1396.8359375 C-784.56975784 1422.12545486 -776.13501036 1447.07983436 -768.5703125 1471.04296875 C-746.32164969 1541.55316735 -746.32164969 1541.55316735 -759.1953125 1569.16796875 C-762.7153617 1575.32805485 -767.49268827 1580.40080719 -773.9453125 1583.48046875 C-783.45383778 1585.49188756 -792.1232077 1584.20033689 -800.46875 1579.2109375 C-817.62268008 1567.96266029 -828.16605192 1551.82440649 -832.55210876 1531.62319946 C-834.9781877 1518.59052882 -835.46256055 1505.61492227 -835.31507683 1492.39369583 C-835.28418748 1489.55551837 -835.26790109 1486.71755547 -835.25502014 1483.87924194 C-835.21585563 1475.82362636 -835.15059398 1467.76827487 -835.07885742 1459.71289062 C-835.03560367 1454.74488716 -835.00784869 1449.77696991 -834.98855782 1444.80881882 C-834.97816022 1442.94411321 -834.96196596 1441.07942857 -834.93925285 1439.21483231 C-834.73802768 1422.67892545 -836.1205817 1406.32048075 -840.9453125 1390.41796875 C-841.20062744 1389.55437744 -841.45594238 1388.69078613 -841.71899414 1387.80102539 C-845.34636297 1375.93292315 -850.3161125 1365.03043029 -856.91015625 1354.5234375 C-858.1953125 1352.16796875 -858.1953125 1352.16796875 -858.1953125 1349.16796875 C-858.8553125 1349.16796875 -859.5153125 1349.16796875 -860.1953125 1349.16796875 C-860.741875 1348.13414063 -861.2884375 1347.1003125 -861.8515625 1346.03515625 C-863.99083264 1342.30269282 -866.61845323 1339.2827376 -869.6953125 1336.29296875 C-870.21867187 1335.77903564 -870.74203125 1335.26510254 -871.28125 1334.7355957 C-891.79586174 1314.99089538 -916.75263562 1304.60428249 -945.12890625 1304.81420898 C-966.27783966 1305.33008141 -986.47421248 1313.77772782 -1001.1953125 1329.16796875 C-1002.66407575 1331.11567654 -1003.91577744 1333.08872427 -1005.1953125 1335.16796875 C-1005.8553125 1335.16796875 -1006.5153125 1335.16796875 -1007.1953125 1335.16796875 C-1007.43765625 1335.67070313 -1007.68 1336.1734375 -1007.9296875 1336.69140625 C-1008.95624167 1338.70015732 -1010.0435272 1340.67779092 -1011.1484375 1342.64453125 C-1024.63069885 1366.78663774 -1029.35665558 1392.89385187 -1029.43554688 1420.39404297 C-1029.44496599 1422.34615455 -1029.47597764 1424.29812529 -1029.5078125 1426.25 C-1029.71859162 1451.06838394 -1025.75729236 1475.99336783 -1021.8926506 1500.43765259 C-1021.56298062 1502.52693447 -1021.23632484 1504.61666894 -1020.91043091 1506.70654297 C-1014.93573082 1544.98650635 -1008.24910298 1583.06703358 -999.62519836 1620.84790039 C-998.60388377 1625.3266132 -997.62960341 1629.81236402 -996.6875 1634.30859375 C-993.83756684 1647.65286217 -990.29552171 1660.72121045 -986.1953125 1673.73046875 C-985.84415375 1674.84858444 -985.84415375 1674.84858444 -985.48590088 1675.98928833 C-979.02780157 1696.45600779 -971.43573296 1716.45932746 -962.42626953 1735.94458008 C-955.18233885 1751.75207223 -949.18566742 1768.23329176 -945.1953125 1785.16796875 C-944.95039062 1786.204375 -944.70546875 1787.24078125 -944.453125 1788.30859375 C-940.26639586 1809.2995919 -943.46404187 1832.44886018 -955.0703125 1850.54296875 C-961.57563191 1859.81182611 -968.43457396 1866.12892543 -979.3203125 1869.85546875 C-980.51914062 1870.27183594 -981.71796875 1870.68820312 -982.953125 1871.1171875 C-995.93927074 1875.3259504 -1008.49585993 1873.43397111 -1021.1953125 1869.16796875 C-1022.23429688 1868.82894531 -1023.27328125 1868.48992187 -1024.34375 1868.140625 C-1042.61725094 1861.40197177 -1056.89309728 1845.3305753 -1065.20458984 1828.07226562 C-1071.61296709 1813.75410148 -1074.91284936 1798.97922022 -1076.4453125 1783.41796875 C-1076.52563721 1782.62293945 -1076.60596191 1781.82791016 -1076.6887207 1781.00878906 C-1077.97703685 1765.57299192 -1077.28329866 1750.06278833 -1076.3203125 1734.6328125 C-1071.36070015 1654.50940888 -1069.96891496 1573.26095182 -1076.1953125 1493.16796875 C-1076.37953229 1490.72559632 -1076.56360951 1488.28321314 -1076.74755859 1485.84082031 C-1079.13606959 1454.53393188 -1082.19001245 1423.30949612 -1086.1953125 1392.16796875 C-1086.31539673 1391.2264093 -1086.43548096 1390.28484985 -1086.5592041 1389.3147583 C-1087.31244706 1383.41655977 -1088.08336782 1377.52104944 -1088.87698364 1371.62814331 C-1089.12625535 1369.77237849 -1089.37252843 1367.91620782 -1089.615448 1366.05960083 C-1091.77093067 1345.03449688 -1091.77093067 1345.03449688 -1103.1953125 1328.16796875 C-1108.92973565 1324.63909297 -1114.64153068 1324.27741528 -1121.1953125 1325.16796875 C-1132.43215521 1328.17317087 -1141.33677493 1335.1566866 -1147.2578125 1345.1484375 C-1153.39014456 1358.35850282 -1151.01635282 1374.89222569 -1146.1953125 1388.16796875 C-1142.8938944 1396.87559983 -1138.75607447 1405.05461689 -1134.3203125 1413.23046875 C-1122.81843199 1434.54426531 -1111.65410445 1460.64590571 -1118.1953125 1485.16796875 C-1123.1792763 1497.95962816 -1129.99048605 1505.6362762 -1142.53515625 1511.20703125 C-1154.19795855 1515.35984272 -1166.98592953 1514.0144659 -1178.1953125 1509.16796875 C-1181.39671704 1507.39152172 -1184.31258556 1505.42009917 -1187.1953125 1503.16796875 C-1188.01 1502.56984375 -1188.8246875 1501.97171875 -1189.6640625 1501.35546875 C-1200.40323663 1492.07470098 -1207.0151344 1476.76597803 -1208.43286133 1462.83349609 C-1209.35674777 1446.47378116 -1205.86845849 1431.79909986 -1201.52734375 1416.1484375 C-1197.08077853 1399.83523182 -1193.10880064 1382.06474517 -1201.1953125 1366.16796875 C-1208.13589387 1354.31969819 -1219.66547047 1347.27227162 -1232.5703125 1343.29296875 C-1251.73344357 1339.09317493 -1272.42898466 1341.97619221 -1289.1953125 1352.16796875 C-1306.5735802 1363.74440099 -1315.10361702 1382.0091987 -1319.9453125 1401.79296875 C-1328.09531881 1443.52100108 -1312.47922529 1482.53732589 -1296.03910828 1520.06477356 C-1280.6998289 1555.08214468 -1262.67363051 1596.30810241 -1277.4453125 1634.48046875 C-1283.82238897 1648.6160062 -1294.79357262 1661.00513568 -1309.1953125 1667.16796875 C-1329.26469602 1674.04537373 -1353.39179757 1673.36398713 -1372.72558594 1664.43188477 C-1399.08297711 1651.28168708 -1416.43765309 1627.15337523 -1425.8515625 1599.65625 C-1427.54429683 1594.27911209 -1428.77040923 1588.80305561 -1429.9453125 1583.29296875 C-1430.24356934 1581.89582642 -1430.24356934 1581.89582642 -1430.54785156 1580.47045898 C-1433.43666705 1565.97311437 -1434.59943455 1551.37055281 -1434.5703125 1536.60546875 C-1434.57248779 1535.43768387 -1434.57248779 1535.43768387 -1434.57470703 1534.24630737 C-1434.57158665 1518.51664259 -1433.40789367 1502.9055153 -1432.1953125 1487.23046875 C-1430.78139083 1468.8832647 -1429.77731149 1450.63583043 -1429.7578125 1432.23046875 C-1429.75209229 1431.28076202 -1429.74637207 1430.3310553 -1429.74047852 1429.35256958 C-1429.6399712 1405.93000557 -1432.49633972 1383.24951503 -1448.6328125 1364.98046875 C-1462.39570935 1351.89222371 -1481.52272874 1349.64717652 -1499.60546875 1349.96484375 C-1524.38157968 1350.81118455 -1542.63214592 1365.2466698 -1560.46484375 1380.91796875 C-1573.87042732 1392.65702551 -1587.56099864 1403.91689404 -1606.33984375 1403.4765625 C-1624.4866632 1401.51541512 -1637.83217077 1386.67588594 -1649.8918457 1374.37890625 C-1668.93154415 1355.01862547 -1693.368907 1345.14622573 -1718.5234375 1335.796875 C-1726.53699245 1332.74478425 -1734.18982165 1329.00241623 -1741.8828125 1325.23046875 C-1743.02425217 1324.67330673 -1743.02425217 1324.67330673 -1744.18875122 1324.10488892 C-1770.77482015 1311.1152185 -1796.3002003 1296.72049525 -1821.0703125 1280.54296875 C-1821.97144272 1279.95535263 -1821.97144272 1279.95535263 -1822.89077759 1279.35586548 C-1829.57808544 1274.98657369 -1836.19337782 1270.52553343 -1842.7109375 1265.90625 C-1843.55686966 1265.31044632 -1843.55686966 1265.31044632 -1844.41989136 1264.7026062 C-1850.10770061 1260.63388229 -1855.10424612 1255.94949829 -1860.1953125 1251.16796875 C-1861.50230741 1250.03657776 -1862.81440671 1248.91104183 -1864.1328125 1247.79296875 C-1867.00407763 1245.31191612 -1869.66953884 1242.68491502 -1872.31445312 1239.96435547 C-1877.54008596 1234.59808466 -1882.94870422 1229.85767357 -1888.90380859 1225.31787109 C-1894.84636148 1220.75410838 -1900.25945461 1215.69970125 -1905.70214844 1210.55957031 C-1907.94966905 1208.46492226 -1910.26308056 1206.44638112 -1912.5703125 1204.41796875 C-1916.82397879 1200.58626615 -1920.56241132 1196.58636207 -1924.1953125 1192.16796875 C-1924.64745117 1191.62817383 -1925.09958984 1191.08837891 -1925.56542969 1190.53222656 C-1937.31364293 1176.50193228 -1948.00216105 1161.90112752 -1957.12304688 1146.02294922 C-1958.19676744 1144.16545175 -1959.29567278 1142.32474733 -1960.3984375 1140.484375 C-1980.01361526 1107.2954083 -1989.85109109 1070.37698354 -1993.94067383 1032.35131836 C-1994.01826431 1031.63288254 -1994.0958548 1030.91444672 -1994.17579651 1030.17424011 C-1994.38615527 1028.20483173 -1994.59024508 1026.23475666 -1994.79394531 1024.26464844 C-1995.09848287 1021.13901809 -1995.09848287 1021.13901809 -1996.1953125 1018.16796875 C-1996.28679645 1016.65962682 -1996.32321263 1015.14758759 -1996.32470703 1013.63647461 C-1996.32785919 1012.722202 -1996.33101135 1011.80792938 -1996.33425903 1010.86595154 C-1996.3322348 1009.88151566 -1996.33021057 1008.89707977 -1996.328125 1007.8828125 C-1996.32908173 1006.87078262 -1996.33003845 1005.85875275 -1996.33102417 1004.8160553 C-1996.33170473 1002.67676735 -1996.32985906 1000.53747734 -1996.32568359 998.39819336 C-1996.32032809 995.11502472 -1996.32563563 991.83199253 -1996.33203125 988.54882812 C-1996.33137056 986.47265595 -1996.33008957 984.39648385 -1996.328125 982.3203125 C-1996.33014923 981.33385239 -1996.33217346 980.34739227 -1996.33425903 979.33103943 C-1996.33110687 978.41991898 -1996.32795471 977.50879852 -1996.32470703 976.57006836 C-1996.32391144 975.76637314 -1996.32311584 974.96267792 -1996.32229614 974.1346283 C-1996.1953125 972.16796875 -1996.1953125 972.16796875 -1995.1953125 970.16796875 C-1994.90235383 967.98274568 -1994.65693709 965.7910879 -1994.43359375 963.59765625 C-1994.28738936 962.22456512 -1994.13995781 960.85160423 -1993.99145508 959.47875977 C-1993.87442734 958.39390793 -1993.87442734 958.39390793 -1993.7550354 957.28713989 C-1988.29155749 907.69230279 -1968.49878111 859.61424058 -1937.3046875 820.4921875 C-1936.65439575 819.66956421 -1936.65439575 819.66956421 -1935.9909668 818.83032227 C-1934.85071085 817.40878362 -1933.6823584 816.00990525 -1932.51171875 814.61328125 C-1930.93018674 812.27842568 -1930.93018674 812.27842568 -1931.59765625 809.84765625 C-1933.38083782 806.85679425 -1935.43478284 804.19828474 -1937.55908203 801.44384766 C-1963.51899948 765.33546949 -1971.15174144 714.27716102 -1964.67382812 671.15356445 C-1959.60644509 641.04784004 -1948.52550113 614.83530133 -1934.1953125 588.16796875 C-1932.41854461 584.83776161 -1930.64843133 581.50409856 -1928.8828125 578.16796875 C-1928.49053467 577.42998047 -1928.09825684 576.69199219 -1927.6940918 575.93164062 C-1924.66873905 570.19261902 -1921.88512712 564.35446536 -1919.1328125 558.48046875 C-1915.936005 551.66505276 -1912.55858854 545.05018104 -1908.79394531 538.53295898 C-1905.30657997 532.46322523 -1902.0909643 526.26398124 -1898.8828125 520.04296875 C-1894.18106617 510.9350105 -1889.36672552 501.90047972 -1884.43432617 492.91552734 C-1881.11153856 486.86018051 -1877.85256766 480.77564636 -1874.64111328 474.66064453 C-1872.48994806 470.57742327 -1870.29916043 466.51835357 -1868.078125 462.47265625 C-1867.53865234 461.48974609 -1866.99917969 460.50683594 -1866.44335938 459.49414062 C-1865.38766232 457.57457594 -1864.32921417 455.65652082 -1863.26757812 453.74023438 C-1861.15991788 449.9083793 -1859.11721794 446.13614828 -1857.46875 442.08203125 C-1856.1953125 439.16796875 -1856.1953125 439.16796875 -1854.1953125 438.16796875 C-1853.85149981 436.50343226 -1853.52024242 434.83629409 -1853.1953125 433.16796875 C-1852.36872944 431.31829033 -1851.47559089 429.49759777 -1850.53515625 427.703125 C-1849.9932666 426.66373779 -1849.45137695 425.62435059 -1848.89306641 424.5534668 C-1848.31218262 423.45687744 -1847.73129883 422.36028809 -1847.1328125 421.23046875 C-1846.53645996 420.09456299 -1845.94010742 418.95865723 -1845.32568359 417.78833008 C-1841.83192656 411.1646107 -1838.23045854 404.63401773 -1834.4609375 398.1640625 C-1831.20118343 392.48701425 -1828.15364953 386.69198967 -1825.0703125 380.91796875 C-1824.7487619 380.31602692 -1824.4272113 379.71408508 -1824.09591675 379.09390259 C-1822.78027772 376.63065263 -1821.4650709 374.16717268 -1820.15049744 371.70335388 C-1816.73931568 365.31043553 -1813.31496546 358.92465767 -1809.8828125 352.54296875 C-1809.30370117 351.4657959 -1808.72458984 350.38862305 -1808.12792969 349.27880859 C-1804.74589404 343.00243804 -1801.30913504 336.76049069 -1797.8203125 330.54296875 C-1794.52757345 324.66466929 -1791.41750203 318.72673712 -1788.43505859 312.68579102 C-1780.98512966 297.61570135 -1773.21057972 282.73340728 -1764.78393555 268.18603516 C-1760.81286342 261.31010723 -1757.01082326 254.35258118 -1753.2578125 247.35546875 C-1752.67515625 246.27015869 -1752.0925 245.18484863 -1751.4921875 244.06665039 C-1749.12918864 239.65922621 -1746.77068134 235.2494784 -1744.421875 230.83447266 C-1742.70570669 227.60950637 -1740.98208448 224.38860761 -1739.2578125 221.16796875 C-1738.75064697 220.20785889 -1738.24348145 219.24774902 -1737.72094727 218.25854492 C-1734.74747216 212.71633801 -1731.50632943 207.55292806 -1727.80029297 202.46923828 C-1725.29192382 198.87266274 -1723.22887442 195.04766752 -1721.1953125 191.16796875 C-1720.5353125 191.16796875 -1719.8753125 191.16796875 -1719.1953125 191.16796875 C-1718.8653125 189.84796875 -1718.5353125 188.52796875 -1718.1953125 187.16796875 C-1717.5353125 187.16796875 -1716.8753125 187.16796875 -1716.1953125 187.16796875 C-1715.99550781 186.48863281 -1715.79570313 185.80929688 -1715.58984375 185.109375 C-1713.68355154 181.08854017 -1710.94316569 178.29793533 -1707.8828125 175.10546875 C-1707.25544189 174.44571045 -1706.62807129 173.78595215 -1705.98168945 173.10620117 C-1675.91835166 141.78093616 -1634.51801952 119.21414283 -1590.2953186 117.90426636 C-1586.86566331 117.84124887 -1583.43790875 117.83783024 -1580.0078125 117.85546875 C-1578.92672211 117.85770447 -1578.92672211 117.85770447 -1577.8237915 117.85998535 C-1566.3940806 117.90235861 -1555.35668512 118.57994446 -1544.1953125 121.16796875 C-1543.22053955 121.38477295 -1543.22053955 121.38477295 -1542.22607422 121.60595703 C-1526.88477152 125.09103787 -1512.81756065 131.04658114 -1498.92431641 138.28662109 C-1496.65173443 139.44505387 -1494.3273963 140.48248052 -1492.0078125 141.54296875 C-1467.35210249 153.93277277 -1448.1207352 178.99651972 -1434.0078125 201.91796875 C-1433.31377319 203.02205078 -1433.31377319 203.02205078 -1432.60571289 204.1484375 C-1424.52281256 217.61000645 -1419.41812212 232.86051921 -1414.23547363 247.6159668 C-1412.75393683 251.8329911 -1411.25430649 256.04356314 -1409.75390625 260.25390625 C-1409.45525665 261.09262268 -1409.15660706 261.93133911 -1408.84890747 262.79547119 C-1405.56300661 271.99116024 -1402.09261044 281.11451992 -1398.57104492 290.22216797 C-1396.53809167 295.50306485 -1394.71732573 300.71460152 -1393.1953125 306.16796875 C-1391.85115693 310.12413949 -1390.43072432 314.05204015 -1389.0078125 317.98046875 C-1388.41432007 319.62486938 -1388.41432007 319.62486938 -1387.80883789 321.30249023 C-1384.41761369 330.65169402 -1380.8485756 339.91821751 -1377.1953125 349.16796875 C-1371.9153125 348.17796875 -1366.6353125 347.18796875 -1361.1953125 346.16796875 C-1361.845 344.24404297 -1361.845 344.24404297 -1362.5078125 342.28125 C-1377.59310694 296.92798508 -1378.47234293 247.56674719 -1357.08203125 203.79296875 C-1347.73901024 185.19299345 -1336.07103738 168.72706161 -1322.0703125 153.35546875 C-1321.59142578 152.82783936 -1321.11253906 152.30020996 -1320.61914062 151.7565918 C-1292.81637768 121.73965929 -1250.63446519 104.14050207 -1210.64428711 99.73535156 C-1209.53360084 99.61032887 -1208.42291456 99.48530617 -1207.27857113 99.3564949 C-1192.8611919 97.76124484 -1178.41875948 96.41537319 -1163.97686124 95.06482816 C-1160.69576788 94.75758526 -1157.4148606 94.44837879 -1154.13394779 94.13921481 C-1143.5819339 93.1449841 -1133.02927915 92.15766234 -1122.47646332 91.17198515 C-1119.75298755 90.91751793 -1117.02953535 90.66279995 -1114.30609131 90.40799332 C-1026.91971804 82.23225717 -1026.91971804 82.23225717 -989.61072922 79.06141663 C-987.25677147 78.86070898 -984.90303714 78.65755383 -982.54934692 78.45373535 C-965.65311116 76.99544782 -948.75817493 75.8570399 -931.8203125 75 C-930.97064911 74.95653631 -930.12098572 74.91307262 -929.24557495 74.86829185 C-919.88986504 74.39622893 -910.56607812 74.02527003 -901.1953125 74.16796875 C-899.95920982 74.18678352 -899.95920982 74.18678352 -898.69813538 74.20597839 C-883.68613214 74.48899625 -868.39942404 76.45654295 -854.265625 81.75 C-849.06798366 82.79933514 -844.59312645 80.57859329 -839.9453125 78.48046875 C-832.88644782 75.48923823 -825.65500553 73.63790805 -818.1953125 71.91796875 C-817.14053711 71.67216064 -816.08576172 71.42635254 -814.99902344 71.1730957 C-801.10777052 68.07797092 -787.44777786 66.75608483 -773.2578125 66.79296875 C-772.49895752 66.79318024 -771.74010254 66.79339172 -770.95825195 66.79360962 C-757.38698455 66.8310944 -744.45302826 68.15214817 -731.1953125 71.16796875 C-730.35129883 71.3498877 -729.50728516 71.53180664 -728.63769531 71.71923828 C-706.32855681 76.60072557 -685.95399096 86.85229938 -668.1953125 101.16796875 C-667.6384375 101.6165625 -667.0815625 102.06515625 -666.5078125 102.52734375 C-654.43869107 112.33350491 -643.62631321 123.0167951 -635.1953125 136.16796875 C-633.84039366 134.66864813 -632.48642572 133.16846821 -631.1328125 131.66796875 C-630.30136719 130.74757812 -629.46992187 129.8271875 -628.61328125 128.87890625 C-626.68144263 126.71299995 -624.80826204 124.51724603 -622.9453125 122.29296875 C-613.12034806 111.12211878 -601.60063641 102.2756913 -589.1953125 94.16796875 C-588.32036133 93.5958667 -588.32036133 93.5958667 -587.42773438 93.01220703 C-546.80797722 67.00740973 -494.9178384 64.52262939 -448.93164062 74.484375 C-434.81883912 77.7681064 -421.90442665 83.28859718 -409.1953125 90.16796875 C-408.14730469 90.73386719 -407.09929687 91.29976562 -406.01953125 91.8828125 C-393.33833568 99.02123385 -382.14603872 107.57607347 -371.71826172 117.69189453 C-370.26484176 119.10057953 -368.79490511 120.4921635 -367.32421875 121.8828125 C-349.57763996 139.02525244 -334.77279504 160.89746896 -329.1953125 185.16796875 C-328.69002151 187.01737371 -328.18440821 188.86670033 -327.671875 190.71411133 C-325.80461341 197.48208891 -324.29088785 204.23413 -323.1953125 211.16796875 C-320.59640096 211.16796875 -319.32505617 210.25514828 -317.0625 208.98046875 C-316.25683594 208.52929688 -315.45117188 208.078125 -314.62109375 207.61328125 C-313.77933594 207.13632813 -312.93757813 206.659375 -312.0703125 206.16796875 C-311.22082031 205.69101563 -310.37132812 205.2140625 -309.49609375 204.72265625 C-307.39367712 203.54152331 -305.29355846 202.35649011 -303.1953125 201.16796875 C-304.1968057 196.14241556 -305.20343447 191.11805879 -306.23046875 186.09765625 C-306.57291667 184.41276042 -306.91536458 182.72786458 -307.2578125 181.04296875 C-307.43119141 180.20121094 -307.60457031 179.35945312 -307.78320312 178.4921875 C-307.95142578 177.66074219 -308.11964844 176.82929688 -308.29296875 175.97265625 C-308.44258057 175.24030762 -308.59219238 174.50795898 -308.74633789 173.75341797 C-309.82593559 167.53648504 -310.36451252 161.44353663 -310.43359375 155.13671875 C-310.4433876 154.39168091 -310.45318146 153.64664307 -310.46327209 152.87902832 C-310.64336105 135.6075229 -310.21066054 119.06238183 -306.1953125 102.16796875 C-305.99695801 101.29930176 -305.79860352 100.43063477 -305.59423828 99.53564453 C-294.39828518 51.85709486 -263.32839414 10.23224271 -222.1328125 -15.76953125 C-219.8298384 -17.14529844 -217.52336125 -18.50042595 -215.1953125 -19.83203125 C-214.51114258 -20.22535645 -213.82697266 -20.61868164 -213.12207031 -21.02392578 C-193.91836293 -31.92989276 -173.87232664 -38.76786277 -152.1953125 -42.83203125 C-150.90238281 -43.07824219 -149.60945313 -43.32445312 -148.27734375 -43.578125 C-96.31659596 -51.65348237 -39.21747737 -35.15181229 0 0 Z " fill="#FE537D" transform="translate(1996.1953125,44.83203125)"/>
<path d="M0 0 C1.30348389 0.03552979 1.30348389 0.03552979 2.63330078 0.07177734 C18.52502993 0.51293785 33.86498923 3.1620268 49 8 C50.03592285 8.32291016 50.03592285 8.32291016 51.09277344 8.65234375 C75.55308081 16.29821466 97.94661302 27.38854397 118.05004883 43.44384766 C119.47333272 44.57969485 120.90694031 45.70264047 122.34643555 46.81787109 C128.42553597 51.57163931 134.00163601 56.65091465 139.4375 62.125 C140.2637085 62.95539795 141.08991699 63.7857959 141.94116211 64.64135742 C148.06279732 70.87590026 153.67355259 77.29374882 158.80566406 84.36132812 C160.00233421 86.00320262 161.22858707 87.61916788 162.4609375 89.234375 C186.34906283 121.02870227 201.01487582 159.66731046 207.44946289 198.67089844 C207.80505001 200.8211361 208.1670643 202.97032527 208.53686523 205.11816406 C211.64578779 223.71193977 212.38795227 242.03924117 212.375 260.875 C212.37663147 261.97601044 212.37826294 263.07702087 212.37994385 264.21139526 C212.3751044 293.09565592 210.22993526 321.76219528 203.48535156 349.89404297 C203.02776338 351.87953375 202.63287026 353.87917437 202.2421875 355.87890625 C190.62419537 414.31337516 151.02399495 473.45008863 102 507 C95.47430523 511.24083964 88.75840886 515.14493858 82 519 C81.2982666 519.40847168 80.5965332 519.81694336 79.87353516 520.23779297 C58.93327578 532.36859661 35.32448221 540.49949864 11.625 545.1875 C10.45940552 545.42025635 10.45940552 545.42025635 9.27026367 545.65771484 C-6.13558156 548.50967004 -21.67250259 549.40940849 -37.3125 549.375 C-38.59787155 549.37518127 -38.59787155 549.37518127 -39.90921021 549.37536621 C-56.21750796 549.34293928 -71.94018157 547.92804764 -88 545 C-88.8338623 544.85046875 -89.66772461 544.7009375 -90.52685547 544.546875 C-133.52111126 536.4872011 -173.66003165 514.07625995 -205 484 C-205.825 483.21625 -206.65 482.4325 -207.5 481.625 C-213.15694324 476.12519408 -218.11658172 470.18896835 -223 464 C-223.79277344 463.02417969 -224.58554688 462.04835938 -225.40234375 461.04296875 C-238.58249325 444.48970042 -250.37257042 425.15589822 -257 405 C-257.44859375 403.83210938 -257.8971875 402.66421875 -258.359375 401.4609375 C-263.90012326 386.75479668 -268.01292545 371.43896856 -270.875 356 C-271.06562012 354.97737061 -271.25624023 353.95474121 -271.45263672 352.90112305 C-274.38320817 336.12525904 -275.4079093 319.44667094 -275.375 302.4375 C-275.37512085 301.466987 -275.3752417 300.496474 -275.37536621 299.49655151 C-275.34300082 281.07857508 -273.81342401 263.18677661 -271 245 C-270.85046875 243.96488281 -270.7009375 242.92976562 -270.546875 241.86328125 C-268.25428974 226.13359907 -263.79335241 211.13058212 -259 196 C-258.74541016 195.18789063 -258.49082031 194.37578125 -258.22851562 193.5390625 C-253.99271664 180.09131099 -248.4554067 167.49579632 -242.01318359 154.98193359 C-241.08147871 153.15938415 -240.17429285 151.32435503 -239.26953125 149.48828125 C-230.30932623 131.82500733 -218.74377982 115.14648044 -206 100 C-205.49936035 99.39929688 -204.9987207 98.79859375 -204.48291016 98.1796875 C-194.53452681 86.28933569 -183.95935613 74.9022662 -172 65 C-171.47132324 64.55221191 -170.94264648 64.10442383 -170.39794922 63.64306641 C-137.72324359 35.9979536 -97.85632066 14.63244416 -56 5 C-55.03320312 4.77296387 -54.06640625 4.54592773 -53.0703125 4.31201172 C-35.23862145 0.24209334 -18.24100904 -0.66718088 0 0 Z " fill="#FFFEFE" transform="translate(2021,573)"/>
<path d="M0 0 C10.10765622 7.10071907 18.49627742 16.00448394 23.38671875 27.40234375 C23.83156616 28.43077393 23.83156616 28.43077393 24.28540039 29.47998047 C28.08780859 38.44913246 31.29544495 47.64301565 34.54400635 56.82339478 C36.50034263 62.34927988 38.47683538 67.86794438 40.453125 73.38671875 C40.85030731 74.49665695 41.24748962 75.60659515 41.65670776 76.75016785 C45.44570652 87.31671984 49.34928433 97.83850527 53.3046875 108.34375 C53.61597595 109.17115692 53.9272644 109.99856384 54.24798584 110.8510437 C58.03994801 120.92346663 61.8745194 130.97913822 65.73974609 141.02368164 C68.018879 146.99152909 70.05983991 153.01591363 71.9765625 159.109375 C72.91965836 161.7916866 73.94309128 164.29049306 75.1171875 166.87109375 C77.51483623 172.16264873 79.34669546 177.59757956 81.18359375 183.10351562 C83.51294137 189.93148483 86.18304718 196.60540288 88.87866211 203.29454041 C91.53459849 209.89341933 94.13126974 216.5133371 96.6953125 223.1484375 C97.07802811 224.13863388 97.46074371 225.12883026 97.85505676 226.14903259 C98.64289455 228.18853051 99.43047384 230.22812831 100.21780396 232.26782227 C107.73849868 251.74424556 115.36315508 271.1716317 123.1796875 290.53125 C124.99530926 295.02999991 126.80849132 299.52971093 128.6171875 304.03125 C129.03194336 305.06330566 129.44669922 306.09536133 129.87402344 307.15869141 C132.44779546 313.59946602 134.83508534 320.07250112 137.109375 326.625 C138.4943106 330.38555506 140.17689576 333.96841496 141.87890625 337.59375 C143.37845669 340.98012217 144.66157351 344.42891408 145.9296875 347.90625 C148.2302017 354.18660111 150.76449936 360.33471522 153.4296875 366.46875 C156.93247345 374.55158102 160.3225133 382.67375101 163.6171875 390.84375 C164.04225586 391.88716553 164.46732422 392.93058105 164.90527344 394.00561523 C172.39571714 412.69387868 172.32532185 431.53335476 164.671875 450.2109375 C160.78473298 458.47337425 155.88756926 465.43996942 150.1796875 472.53125 C149.0040625 474.1090625 149.0040625 474.1090625 147.8046875 475.71875 C135.24725879 489.1731379 115.88472023 502.01856601 96.9609375 502.96484375 C95.20067443 502.9881346 93.43998704 502.98909842 91.6796875 502.96875 C90.75768555 502.96117676 89.83568359 502.95360352 88.88574219 502.94580078 C82.2727218 502.78510837 76.9122459 502.018738 71.1796875 498.53125 C70.41914063 498.11875 69.65859375 497.70625 68.875 497.28125 C47.7821735 484.78179726 41.32369267 452.18520515 33.1796875 430.53125 C21.65168123 430.26462867 10.23339917 431.08743599 -1.2578125 431.90625 C-3.2544704 432.04565184 -5.25113385 432.1849743 -7.24780273 432.32421875 C-21.2803691 433.31159726 -35.28379801 434.4850291 -49.28222656 435.875 C-87.65965066 439.63538042 -126.26449599 441.0824714 -164.8203125 440.53125 C-165.05137695 441.31790039 -165.28244141 442.10455078 -165.52050781 442.91503906 C-167.20394556 447.59856272 -169.38552523 451.94728549 -171.6171875 456.390625 C-172.08844055 457.33504456 -172.5596936 458.27946411 -173.04522705 459.25250244 C-174.04185612 461.24711855 -175.0404968 463.24073063 -176.04101562 465.23339844 C-177.55674929 468.25421885 -179.06396544 471.2791776 -180.5703125 474.3046875 C-181.54375838 476.25025648 -182.51770106 478.195577 -183.4921875 480.140625 C-183.93616882 481.03263611 -184.38015015 481.92464722 -184.83758545 482.84368896 C-195.81748433 504.64382548 -209.02881746 520.38727243 -232.62109375 528.55078125 C-243.92414323 532.01484159 -261.72536143 533.01722855 -272.8203125 528.53125 C-276.49873856 526.19738978 -279.6458237 523.50427039 -282.8203125 520.53125 C-283.77744141 519.69207031 -283.77744141 519.69207031 -284.75390625 518.8359375 C-293.06239621 511.17510266 -298.08648145 501.05035333 -301.8203125 490.53125 C-302.21476562 489.44714844 -302.60921875 488.36304688 -303.015625 487.24609375 C-309.1763763 467.79449086 -306.90071859 446.50666829 -298.6875 428.046875 C-298.38483719 427.36168289 -298.08217438 426.67649078 -297.77033997 425.97053528 C-294.30791561 418.23683453 -290.42930198 410.72697835 -286.5078125 403.21875 C-285.74634718 401.75150837 -284.98528439 400.28405776 -284.22460938 398.81640625 C-280.08349853 390.83513254 -275.91413158 382.86859346 -271.70336914 374.92382812 C-269.05193544 369.90924407 -266.44763736 364.87159801 -263.859375 359.82421875 C-263.50331177 359.1299881 -263.14724854 358.43575745 -262.78039551 357.7204895 C-262.41812866 357.01415375 -262.05586182 356.30781799 -261.68261719 355.58007812 C-255.63429955 343.78807727 -249.54101905 332.03864448 -243.13720703 320.43432617 C-238.84259005 312.63388441 -234.74957096 304.73509638 -230.66381836 296.82373047 C-227.2422666 290.21635078 -223.73012923 283.66932559 -220.1328125 277.15625 C-214.90186488 267.66804658 -209.94145856 258.05098427 -205.0078125 248.40625 C-197.70032957 234.12489368 -190.23129474 219.94601045 -182.60400391 205.83251953 C-180.82223559 202.53480927 -179.04512935 199.23462986 -177.26953125 195.93359375 C-174.36679706 190.53745435 -171.46107258 185.14293401 -168.55419922 179.74902344 C-166.81030379 176.51267569 -165.06711883 173.27594639 -163.32421875 170.0390625 C-162.74599365 168.96519287 -162.16776855 167.89132324 -161.57202148 166.78491211 C-160.40601311 164.61914296 -159.24015976 162.45329034 -158.07446289 160.28735352 C-155.13751637 154.83102997 -152.19713349 149.37661007 -149.25 143.92578125 C-143.6605885 133.58023856 -138.1107918 123.21904943 -132.6953125 112.78125 C-125.66911236 99.24952279 -118.33501756 85.89357746 -110.96484375 72.546875 C-110.63216492 71.94424835 -110.29948608 71.3416217 -109.95672607 70.72073364 C-108.24912977 67.62806424 -106.53961248 64.53648367 -104.82666016 61.44677734 C-101.58510659 55.59293572 -98.37838041 49.72643217 -95.26171875 43.8046875 C-83.75668037 21.98000868 -70.62861005 2.26620612 -46.05615234 -5.97753906 C-30.76106251 -10.42770894 -13.61547795 -8.17926148 0 0 Z " fill="#FFFEFE" transform="translate(429.8203125,242.46875)"/>
<path d="M0 0 C8.74925883 7.9467189 15.01591245 16.61415778 16.6796875 28.64453125 C17.152168 43.57491491 13.51255161 56.2801307 4.171875 67.97265625 C3.49125 68.84535156 2.810625 69.71804688 2.109375 70.6171875 C-6.48016786 80.89621765 -17.26165049 87.55827931 -29.828125 91.97265625 C-30.46451904 92.23087158 -31.10091309 92.48908691 -31.7565918 92.75512695 C-38.2243087 95.21787107 -44.26520878 95.47541935 -51.140625 95.41015625 C-52.25131348 95.40258301 -53.36200195 95.39500977 -54.50634766 95.38720703 C-62.23325801 95.23141796 -68.85368579 94.50914583 -75.828125 90.97265625 C-76.76269531 90.52535156 -77.69726562 90.07804688 -78.66015625 89.6171875 C-84.08818952 86.84747969 -88.73678091 83.56718319 -93.47265625 79.76171875 C-102.33948418 73.02704679 -112.37715465 68.59910039 -122.828125 64.97265625 C-124.00375 64.55628906 -125.179375 64.13992188 -126.390625 63.7109375 C-156.03867865 54.7599891 -190.55524967 62.97140346 -217.36425781 76.90332031 C-236.34930284 87.18896478 -254.16511978 100.52336839 -265.828125 118.97265625 C-266.61123047 120.15601563 -266.61123047 120.15601563 -267.41015625 121.36328125 C-280.21030375 141.45465201 -283.94605127 166.92460654 -279.24047852 190.13378906 C-273.91061606 214.10473349 -261.90995609 236.15708822 -240.890625 249.72265625 C-238.5553836 251.17588757 -236.19928989 252.57721208 -233.828125 253.97265625 C-232.57902344 254.71515625 -232.57902344 254.71515625 -231.3046875 255.47265625 C-224.3117556 259.29132213 -216.70371302 261.34982467 -209.04296875 263.37304688 C-206.97694582 263.93236702 -204.93663324 264.54798194 -202.890625 265.17578125 C-173.23787289 273.64540525 -134.82291028 268.55740249 -106.828125 256.97265625 C-105.15299922 255.98689188 -103.48291901 254.99218289 -101.828125 253.97265625 C-100.838125 253.97265625 -99.848125 253.97265625 -98.828125 253.97265625 C-98.828125 242.42265625 -98.828125 230.87265625 -98.828125 218.97265625 C-101.40753906 219.04484375 -103.98695313 219.11703125 -106.64453125 219.19140625 C-118.03804838 219.50144572 -129.43259428 219.74995546 -140.828125 219.97265625 C-142.22448181 220.00096527 -142.22448181 220.00096527 -143.64904785 220.02984619 C-148.94465526 220.13487586 -154.23963178 220.21493587 -159.53610229 220.25976562 C-161.16503782 220.27644613 -162.79391943 220.30015514 -164.42263794 220.33154297 C-183.26599185 220.68042591 -199.54498452 216.70449845 -213.60546875 203.3125 C-221.62360742 194.87161237 -225.8644756 184.672076 -226.328125 172.97265625 C-225.68989129 158.23525973 -218.53033696 144.95890558 -207.890625 134.97265625 C-192.02185056 121.80961754 -175.40166066 118.98579105 -155.42556763 118.64163208 C-140.04682229 118.36100586 -124.73250592 117.62652786 -109.390625 116.53515625 C-108.46102966 116.46930328 -107.53143433 116.40345032 -106.57366943 116.33560181 C-100.32444799 115.89082196 -94.07621937 115.43295159 -87.828125 114.97265625 C-72.94082506 113.87908009 -58.07529245 112.80683 -43.140625 112.72265625 C-42.16714111 112.71339111 -41.19365723 112.70412598 -40.19067383 112.69458008 C-21.96788266 112.77527491 -5.068435 117.69452421 8.6171875 130.22265625 C17.55905383 140.28787262 20.6875422 150.51797809 20.4453125 163.7109375 C20.43414398 164.90076736 20.42297546 166.09059723 20.41146851 167.31648254 C20.1939774 184.60743081 19.59239929 201.8946989 19 219.17602539 C18.82834117 224.1886682 18.66757704 229.20159638 18.50959206 234.21468639 C18.38419233 238.14524099 18.2520989 242.07555057 18.11817551 246.00582314 C18.05615831 247.85335257 17.99632235 249.70095682 17.93892288 251.54863548 C17.65666413 260.54314582 17.24588508 269.48179744 16.22705078 278.42675781 C16.14958429 279.11933276 16.07211781 279.81190771 15.99230385 280.52546978 C15.34541952 285.73304797 14.04327254 290.01386375 11.421875 294.53515625 C10.88626953 295.5262439 10.88626953 295.5262439 10.33984375 296.53735352 C7.68138428 301.35342917 4.75328022 305.79127335 1.171875 309.97265625 C0.67171875 310.64941406 0.1715625 311.32617188 -0.34375 312.0234375 C-10.26883002 324.60861779 -26.81425834 332.65121714 -40.828125 339.97265625 C-41.57271973 340.36662598 -42.31731445 340.7605957 -43.08447266 341.16650391 C-64.68337018 352.45592145 -88.84728366 360.58208885 -112.828125 364.97265625 C-113.86163086 365.16585449 -114.89513672 365.35905273 -115.95996094 365.55810547 C-185.37200462 377.91348959 -265.54626422 366.73587075 -324.42138672 326.60571289 C-347.97374174 310.13719388 -366.64127013 289.76415019 -381.265625 265.03515625 C-381.67868896 264.3376123 -382.09175293 263.64006836 -382.51733398 262.92138672 C-387.2107778 254.82589903 -390.035262 246.50121949 -392.828125 237.59765625 C-393.51512445 235.42301889 -394.2026161 233.24853695 -394.890625 231.07421875 C-395.21820801 230.03177002 -395.54579102 228.98932129 -395.88330078 227.9152832 C-396.71669356 225.31970616 -397.60338576 222.75104824 -398.5078125 220.1796875 C-399.87062806 216.12443524 -400.47816603 212.28819796 -400.953125 208.03515625 C-401.3451128 203.34506041 -401.3451128 203.34506041 -402.828125 198.97265625 C-402.93717581 197.6300819 -402.98707097 196.28242176 -403.00512695 194.93554688 C-403.01775574 194.09771667 -403.03038452 193.25988647 -403.043396 192.39666748 C-403.05098938 191.48330627 -403.05858276 190.56994507 -403.06640625 189.62890625 C-403.07633606 188.68090149 -403.08626587 187.73289673 -403.09649658 186.75616455 C-403.39763285 150.44445765 -400.39273618 117.16719737 -381.828125 84.97265625 C-381.45075195 84.31652344 -381.07337891 83.66039062 -380.68457031 82.984375 C-345.85771843 23.3137983 -282.88286131 -12.83636182 -217.640625 -30.08984375 C-147.023197 -48.21462137 -58.88075601 -49.69298704 0 0 Z " fill="#FFFEFE" transform="translate(497.828125,830.02734375)"/>
<path d="M0 0 C1.38288208 0.39735352 1.38288208 0.39735352 2.79370117 0.80273438 C3.68677979 1.06376953 4.5798584 1.32480469 5.5 1.59375 C6.30050781 1.82771484 7.10101562 2.06167969 7.92578125 2.30273438 C10.54571856 3.18344777 12.68670918 4.49948704 15 6 C16.03125 6.4125 17.0625 6.825 18.125 7.25 C32.99909798 13.5093818 44.23098135 24.3250127 51.31640625 38.6640625 C56.6154835 51.773278 55.60263144 68.97609435 50.21777344 81.87353516 C46.09558504 91.32078753 41.12997509 99.47458091 34 107 C33.26394531 107.78890625 32.52789063 108.5778125 31.76953125 109.390625 C20.62904908 120.3631602 4.39861288 127.61093198 -11.25 127.5 C-12.17022949 127.49572998 -13.09045898 127.49145996 -14.03857422 127.48706055 C-21.8290952 127.29356244 -28.0265691 125.50582074 -35 122 C-36.91429934 121.11983288 -38.83090928 120.24467059 -40.75 119.375 C-41.54921875 118.99085938 -42.3484375 118.60671875 -43.171875 118.2109375 C-66.97446608 108.01922033 -96.05253911 106.75587417 -121 113 C-122.03511719 113.20496094 -123.07023437 113.40992188 -124.13671875 113.62109375 C-137.59151232 116.45275619 -150.52468004 123.07257475 -158.72265625 134.375 C-162.34020839 140.66289007 -163.11543056 146.85298196 -162 154 C-157.91682243 162.46881274 -150.28845888 165.59570278 -142 169 C-138.5390827 170.16716385 -135.04988035 171.0826741 -131.5 171.9375 C-130.4901001 172.18491943 -129.4802002 172.43233887 -128.43969727 172.68725586 C-110.00437286 177.03636202 -91.18367197 179.70540307 -72.48815918 182.67253113 C-51.71006811 185.97170417 -31.79224884 190.01942969 -11.66308594 196.19335938 C-9.42012472 196.8727455 -7.17274869 197.51634763 -4.9140625 198.140625 C22.99647082 206.39672095 47.54461067 225.26460716 61.9765625 250.44921875 C66.16059848 258.39888711 68.90111698 266.28380524 71 275 C71.44859375 276.56427734 71.44859375 276.56427734 71.90625 278.16015625 C78.4595414 304.10026805 74.97209981 335.93386258 66 361 C65.74202637 361.72880371 65.48405273 362.45760742 65.21826172 363.20849609 C48.74464886 409.0802619 16.85376503 441.53311587 -26 464 C-26.75796875 464.40887451 -27.5159375 464.81774902 -28.296875 465.23901367 C-35.04937846 468.77711242 -42.0065774 471.2214583 -49.25 473.5625 C-51.05766846 474.15272949 -51.05766846 474.15272949 -52.90185547 474.75488281 C-56.26471372 475.8468441 -59.63148432 476.92564355 -63 478 C-64.09199707 478.35457275 -64.09199707 478.35457275 -65.20605469 478.71630859 C-73.02564072 481.24089337 -81.02750494 482.94662753 -89.0625 484.625 C-90.02494629 484.83157227 -90.98739258 485.03814453 -91.97900391 485.25097656 C-109.99666837 488.86567682 -128.24424384 489.37751016 -146.5625 489.3125 C-147.60672119 489.31100952 -148.65094238 489.30951904 -149.72680664 489.3079834 C-171.79419551 489.25152998 -193.74813352 488.52307832 -215 482 C-215.67450195 481.79584473 -216.34900391 481.59168945 -217.04394531 481.38134766 C-220.49564763 480.33438958 -223.93767946 479.26169403 -227.37109375 478.15625 C-230.38209674 477.19687768 -233.39845003 476.30177387 -236.4375 475.4375 C-241.17695741 474.00627771 -245.56010252 472.18814432 -250 470 C-250.60231445 469.70351562 -251.20462891 469.40703125 -251.82519531 469.1015625 C-271.63935905 459.2470001 -286.93091102 448.90792676 -296 428 C-296.38542969 427.12601563 -296.77085937 426.25203125 -297.16796875 425.3515625 C-300.69144592 411.15840095 -299.22962154 394.15142324 -293 381 C-292.33097656 379.51886719 -292.33097656 379.51886719 -291.6484375 378.0078125 C-283.0976964 360.7630218 -267.36435212 350.00143407 -250 343 C-249.07574219 342.61457031 -248.15148438 342.22914063 -247.19921875 341.83203125 C-242.69443565 340.66045762 -238.38571779 340.67101452 -233.75 340.6875 C-232.41388672 340.66333008 -232.41388672 340.66333008 -231.05078125 340.63867188 C-222.67887624 340.63259647 -215.1260799 342.39830189 -207.875 346.6875 C-206.94816406 347.20828125 -206.02132813 347.7290625 -205.06640625 348.265625 C-204.05449219 348.83796875 -203.04257813 349.4103125 -202 350 C-170.67125711 367.65606128 -126.17510153 375.50779287 -90.93212891 366.55224609 C-76.11271859 362.31652381 -62.92405005 355.6978214 -54.3515625 342.453125 C-51.0442866 336.45032366 -49.67489773 328.7547896 -51 322 C-55.7939278 312.32498208 -67.52833181 308.45818592 -77.12109375 305.21875 C-97.15310665 298.84508607 -118.12168496 295.21307252 -138.9375 292.5 C-149.82301485 291.07935354 -160.35895704 288.42767082 -170.99121094 285.7421875 C-173.80206932 285.04882418 -176.61793733 284.40333475 -179.4453125 283.78125 C-217.14551106 275.42730881 -251.04502742 260.34002051 -272.375 226.9375 C-281.25399105 211.22066527 -284.70421633 193.89529093 -284.41162109 176.05078125 C-284.37478565 173.736533 -284.37060628 171.42388849 -284.37109375 169.109375 C-284.3296055 160.24202764 -283.68920617 151.73036781 -282 143 C-281.8541748 142.2280127 -281.70834961 141.45602539 -281.55810547 140.66064453 C-273.81393067 101.95788559 -250.02666272 68.83207426 -219 45 C-218.43941895 44.5683252 -217.87883789 44.13665039 -217.30126953 43.69189453 C-200.68124938 30.97290601 -182.35879602 20.02401403 -163 12 C-162.05898437 11.58878906 -161.11796875 11.17757812 -160.1484375 10.75390625 C-153.94001224 8.08690667 -147.72405729 5.86736979 -141.2421875 3.9609375 C-139.19535196 3.35428504 -137.15699844 2.71746814 -135.1328125 2.0390625 C-91.30924599 -12.49129775 -44.09648269 -12.81783029 0 0 Z " fill="#FFFEFE" transform="translate(1290,678)"/>
<path d="M0 0 C10.11436196 8.01355646 15.28195797 17.05019196 17.33203125 29.84765625 C17.88807139 37.02576432 17.73263441 44.24027069 17.671875 51.43359375 C17.66745832 52.50214977 17.66304165 53.5707058 17.65849113 54.6716423 C17.53428814 83.84530019 16.27216684 112.99202529 15.07250977 142.13677979 C14.57105396 154.33092986 14.08682704 166.52578228 13.60649657 178.72078037 C13.5237895 180.81530461 13.44042421 182.90980183 13.35694313 185.00429535 C12.55045671 205.29431341 11.95182422 225.58121599 11.67237854 245.88589478 C11.38972122 264.94446381 9.80780025 283.51009324 4.33203125 301.84765625 C4.11675781 302.59708496 3.90148437 303.34651367 3.6796875 304.11865234 C0.68027403 314.51704269 -2.84164578 324.3938488 -7.75146484 334.04589844 C-8.36430092 335.25067475 -8.96877157 336.45974169 -9.56494141 337.67285156 C-34.47844832 388.36127244 -82.40049248 422.91093786 -134.79296875 440.984375 C-147.56906519 445.27650622 -160.33316073 448.82148949 -173.66796875 450.84765625 C-174.7554541 451.02353271 -175.84293945 451.19940918 -176.96337891 451.38061523 C-188.20822463 453.01452517 -199.36062953 453.18674272 -210.71142578 453.16333008 C-213.89911302 453.16017491 -217.08586443 453.18370176 -220.2734375 453.20898438 C-236.76510492 453.26027604 -252.81286991 451.78550715 -268.79296875 447.53515625 C-269.61531006 447.31988281 -270.43765137 447.10460938 -271.28491211 446.8828125 C-273.7516914 446.22355229 -276.21043285 445.54049641 -278.66796875 444.84765625 C-279.39097168 444.64865723 -280.11397461 444.4496582 -280.85888672 444.24462891 C-301.38757564 438.46516633 -321.59173887 428.61576539 -338.66796875 415.84765625 C-339.91513672 414.95820312 -339.91513672 414.95820312 -341.1875 414.05078125 C-354.60987816 403.98956246 -366.91439067 391.17977373 -375.66796875 376.84765625 C-376.12397461 376.1014502 -376.57998047 375.35524414 -377.04980469 374.58642578 C-387.74550157 356.76864465 -393.08021555 339.5200944 -396.30761719 319.07006836 C-396.5865855 317.34957475 -396.91589292 315.63720297 -397.265625 313.9296875 C-399.27284367 298.55400273 -397.67874785 282.15383814 -397.25 266.65234375 C-397.22843275 265.85952814 -397.2068655 265.06671253 -397.1846447 264.24987221 C-396.73692343 247.92139218 -396.09506759 231.60285944 -395.42477417 215.2822876 C-394.48188248 192.28547642 -393.63111268 169.29161518 -393.09765625 146.28125 C-393.07608145 145.35997252 -393.05450665 144.43869503 -393.03227806 143.48950005 C-392.82308121 134.52359902 -392.62407707 125.55761489 -392.45258331 116.590909 C-392.38806687 113.29631084 -392.31662643 110.00188477 -392.24382401 106.7074604 C-392.21196573 105.18339253 -392.1834255 103.65925098 -392.15851974 102.13505363 C-392.03853963 94.80803773 -391.90803766 87.88343354 -389.66796875 80.84765625 C-389.384375 79.91179687 -389.10078125 78.9759375 -388.80859375 78.01171875 C-382.14548446 59.01601243 -368.87590468 45.82819553 -351.02124023 36.88598633 C-335.6564137 29.56091737 -316.27270872 26.25474234 -299.66796875 31.84765625 C-285.47119453 38.03731264 -275.63253653 46.61352458 -269.85546875 61.09765625 C-267.36966585 68.94756014 -267.49951602 76.50960779 -267.51953125 84.671875 C-267.52035328 85.35034674 -267.52117531 86.02881847 -267.52202225 86.72784996 C-267.54981091 101.28124386 -268.13609282 115.80010178 -268.83599854 130.33453369 C-269.20074342 137.91482874 -269.53618222 145.49646274 -269.87109375 153.078125 C-269.90546162 153.85256454 -269.93982948 154.62700409 -269.9752388 155.4249115 C-271.02686378 179.22628178 -271.6739049 203.04020311 -272.34269714 226.85479736 C-272.62240384 236.66134928 -272.96019994 246.46525574 -273.32949829 256.26882935 C-275.21476896 291.45505021 -275.21476896 291.45505021 -258.66796875 321.53515625 C-247.04016381 332.56970584 -229.62096834 338.96566078 -213.75 338.98046875 C-212.76407112 338.98190384 -212.76407112 338.98190384 -211.75822449 338.98336792 C-210.37063501 338.98404596 -208.9830423 338.98221798 -207.59545898 338.97802734 C-205.50431919 338.97271682 -203.41339842 338.97796275 -201.32226562 338.984375 C-190.42161512 338.992578 -180.43764731 338.46831766 -169.98046875 335.28515625 C-169.11832764 335.023396 -168.25618652 334.76163574 -167.36791992 334.49194336 C-155.62270753 330.75300182 -144.90962026 325.08209144 -135.66796875 316.84765625 C-134.92160156 316.20570313 -134.17523437 315.56375 -133.40625 314.90234375 C-124.71098822 306.90093139 -118.60813483 296.29648476 -115.66796875 284.84765625 C-115.38179687 283.85378906 -115.38179687 283.85378906 -115.08984375 282.83984375 C-112.93970212 275.00718495 -112.53135675 267.00123336 -112.3425293 258.91699219 C-112.30791674 257.63813991 -112.30791674 257.63813991 -112.27260494 256.33345222 C-112.22285537 254.47857983 -112.1748297 252.62366056 -112.12834549 250.76870346 C-112.05251385 247.74536996 -111.97205637 244.72218861 -111.89047241 241.69900513 C-111.77207249 237.30277114 -111.65529739 232.9064983 -111.5395813 228.51019287 C-110.49315678 188.97837608 -109.32798976 149.44837013 -107.97354126 109.92590332 C-107.81029037 105.14349423 -107.65550248 100.36092767 -107.50814819 95.57800293 C-107.33367718 89.92590639 -107.14224815 84.27463032 -106.93806839 78.62353134 C-106.86613906 76.55699267 -106.79999511 74.49024248 -106.74033737 72.42331314 C-106.03036641 48.14278507 -100.35098296 29.08663613 -82.66796875 11.84765625 C-82.01183594 11.1825 -81.35570312 10.51734375 -80.6796875 9.83203125 C-71.76846126 1.35968767 -60.37535209 -3.87151361 -48.66796875 -7.15234375 C-46.81171875 -7.77109375 -46.81171875 -7.77109375 -44.91796875 -8.40234375 C-29.94141551 -11.80610585 -12.50302972 -8.82897601 0 0 Z " fill="#FFFEFE" transform="translate(957.66796875,740.15234375)"/>
<path d="M0 0 C1.31170166 -0.00833862 1.31170166 -0.00833862 2.64990234 -0.0168457 C16.8399781 0.13881142 29.47318688 4.1755724 40.4375 13.3125 C41.283125 13.89 42.12875 14.4675 43 15.0625 C51.40532707 22.82126345 56.94031824 33.86797444 57.61401367 45.31054688 C57.67076095 48.79241625 57.66078172 52.26787362 57.625 55.75 C57.6240332 57.48540039 57.6240332 57.48540039 57.62304688 59.25585938 C57.59289669 65.34954753 57.39316422 71.40371588 56.98779297 77.48388672 C56.23115776 89.65622344 55.90766005 101.84689016 55.52838969 114.03557944 C55.46403374 116.10020492 55.39905852 118.16481004 55.33389473 120.22941017 C55.10442125 127.50271629 54.87760743 134.77610025 54.65307617 142.04956055 C54.46996407 147.9790566 54.28266221 153.90840291 54.09155273 159.83764648 C52.78477896 198.57766582 52.78477896 198.57766582 52.08929634 237.33112526 C52.07440691 238.87659306 52.05314643 240.42201707 52.02448845 241.96729088 C51.78943813 255.50421867 54.32001672 266.91060935 63.4375 277.3125 C80.79775301 294.10520628 104.31911947 295.74237274 127.1171875 295.515625 C152.52936675 294.98445021 179.46901958 286.37319851 197.80859375 268.16796875 C206.47479307 258.7549053 211.10426357 248.19711481 212.47827148 235.54003906 C212.56267455 234.76506702 212.64707762 233.99009499 212.73403835 233.19163895 C213.85772251 222.07103044 214.11462391 210.90002531 214.47265625 199.734375 C214.55652285 197.27278765 214.64096218 194.81121976 214.72593689 192.34967041 C214.94708739 185.89393461 215.15975725 179.43794593 215.37078857 172.98187256 C215.5411531 167.81420232 215.71766665 162.64675115 215.8944931 157.47929859 C216.72925181 133.07407059 217.55310584 108.66877245 218.10377502 84.25518799 C219.31530871 32.220927 219.31530871 32.220927 235.70703125 16.515625 C250.23470601 4.79372434 268.09691183 0.68776545 286.4375 2.3125 C290.92017735 2.94938312 295.12037807 3.95757101 299.4375 5.3125 C301.03658203 5.80556641 301.03658203 5.80556641 302.66796875 6.30859375 C317.82015548 11.54035237 330.49486844 21.26758309 337.9375 35.625 C341.18203056 42.37542608 341.5952894 48.21732103 341.60546875 55.5859375 C341.61168495 56.97986977 341.61168495 56.97986977 341.61802673 58.40196228 C341.62783717 61.49718035 341.62764834 64.59226846 341.625 67.6875 C341.62506042 68.76913422 341.62512085 69.85076843 341.62518311 70.96517944 C341.60926064 91.27725149 340.9695359 111.5401009 340.15292358 131.83337402 C340.08302719 133.57294373 340.08302719 133.57294373 340.01171875 135.34765625 C339.96439606 136.52283813 339.91707336 137.69802002 339.86831665 138.90881348 C339.48290197 148.68635562 339.17614502 158.4651312 338.89453125 168.24609375 C338.87256432 169.0077717 338.85059738 169.76944965 338.82796478 170.55420876 C338.63240251 177.35711937 338.44088786 184.16014054 338.25372314 190.96328735 C337.00703454 236.24464158 337.00703454 236.24464158 335.1875 247 C335.05674072 247.78068848 334.92598145 248.56137695 334.79125977 249.36572266 C331.12050431 269.98309756 322.2872297 289.77842302 309.4375 306.3125 C308.71949219 307.23933594 308.00148438 308.16617187 307.26171875 309.12109375 C305.04051926 311.90252473 302.76213855 314.61698984 300.4375 317.3125 C300.01210937 317.80637207 299.58671875 318.30024414 299.1484375 318.80908203 C292.82408219 326.09272369 286.08767277 332.41004112 278.4375 338.3125 C277.46425781 339.10140625 276.49101563 339.8903125 275.48828125 340.703125 C262.96927234 350.69319987 249.30510517 358.65694208 234.90234375 365.609375 C232.15954471 366.95758287 229.5570919 368.37267762 226.9375 369.9375 C220.45944165 373.56569164 213.4190111 375.86144984 206.4375 378.3125 C205.40963379 378.68036621 204.38176758 379.04823242 203.32275391 379.42724609 C188.5890554 384.67309505 173.85724359 389.19767177 158.625 392.75 C157.9360968 392.91135437 157.2471936 393.07270874 156.53741455 393.23895264 C100.63853946 406.21927217 36.30622212 407.59961722 -14.125 376.25 C-16.62900093 374.63942419 -19.10334852 372.99062089 -21.5625 371.3125 C-22.80193359 370.47138672 -22.80193359 370.47138672 -24.06640625 369.61328125 C-35.83753601 361.00713297 -46.11798491 349.81626081 -53.5625 337.3125 C-54.13242676 336.35585449 -54.13242676 336.35585449 -54.71386719 335.37988281 C-63.30728528 320.66551399 -68.26396178 306.00876207 -70.9375 289.1875 C-71.10548096 288.17123535 -71.27346191 287.1549707 -71.4465332 286.10791016 C-72.45766758 278.99664741 -72.68080381 272.00541297 -72.66796875 264.83300781 C-72.66663122 263.79476427 -72.66529369 262.75652073 -72.66391563 261.68681526 C-72.60203628 248.31031319 -72.10319009 234.94591593 -71.61871767 221.57956076 C-71.4818217 217.77735961 -71.34979454 213.97498874 -71.21713257 210.17263794 C-70.99287243 203.76326756 -70.76562519 197.35400931 -70.53613281 190.94482422 C-70.30514003 184.49372697 -70.07609454 178.04256572 -69.84960938 171.59130859 C-69.82196416 170.80405293 -69.79431895 170.01679727 -69.765836 169.20568538 C-69.65464725 166.03815415 -69.54352513 162.8706206 -69.43255758 159.70308161 C-69.13168761 151.11779551 -68.82704598 142.53268071 -68.51104736 133.94793701 C-68.39937296 130.9050789 -68.28796785 127.86221105 -68.17675781 124.81933594 C-68.1495901 124.07726442 -68.12242238 123.3351929 -68.0944314 122.57063437 C-67.76083218 113.41556599 -67.4674986 104.26074529 -67.22955513 95.10268211 C-67.09917219 90.12094558 -66.9533213 85.13971671 -66.80616379 80.15845108 C-66.74391196 77.89451008 -66.68956499 75.63033428 -66.64412308 73.3659935 C-66.23835854 53.22787143 -63.28060705 35.24768809 -48.8125 20 C-40.86788632 12.50009238 -31.69286259 7.29749854 -21.5625 3.3125 C-20.77101563 2.99152344 -19.97953125 2.67054688 -19.1640625 2.33984375 C-12.83568201 0.19378412 -6.61832318 0.03532088 0 0 Z " fill="#FFFEFE" transform="translate(1205.5625,183.6875)"/>
<path d="M0 0 C14.38681046 7.24233996 23.50909691 17.08459928 29.1875 32.1796875 C35.07303165 52.60927332 32.23997634 73.91800072 22.625 92.68359375 C13.80821636 108.04108917 2.45541751 118.37509165 -14 125 C-14.76570313 125.31710937 -15.53140625 125.63421875 -16.3203125 125.9609375 C-23.59046859 128.84048952 -30.410605 130.22517059 -38.1875 130.4375 C-44.81897436 130.70798982 -51.25930802 131.39991655 -57.8125 132.4375 C-69.99812857 134.33663396 -82.24642469 135.03060458 -94.546875 135.77832031 C-100.03548325 136.13067158 -105.5176721 136.56173251 -111 137 C-110.98912354 137.9077417 -110.97824707 138.8154834 -110.96704102 139.75073242 C-110.89790957 150.31467625 -111.28949399 160.82101525 -111.79736328 171.37127686 C-112.64700889 189.20384309 -113.20850065 207.02496186 -113.5 224.875 C-113.82168132 244.45279352 -114.40806623 264.01004731 -115.13525391 283.57684326 C-115.72159486 299.3837959 -116.19494714 315.18518324 -116.5 331 C-116.78678211 345.78050211 -117.34841229 360.5253795 -118.13525391 375.28753662 C-118.77801611 387.37175816 -119.20055303 399.44265855 -119.44665527 411.54141235 C-120.6674627 470.6674627 -120.6674627 470.6674627 -144.96484375 494.96484375 C-154.66902694 504.03398837 -169.59226617 511.63013148 -183 512 C-184.64742187 512.0928125 -184.64742187 512.0928125 -186.328125 512.1875 C-201.48697047 512.68655664 -214.72772019 508.66411878 -226.5 498.93359375 C-236.90727451 489.10645447 -243.90939543 476.69885694 -244.39885902 462.1688652 C-244.43865388 458.55323125 -244.37916864 454.94294065 -244.3046875 451.328125 C-244.28634595 449.70918448 -244.26961396 448.09022504 -244.25436401 446.47125244 C-244.20766952 442.18335832 -244.13348332 437.89642047 -244.04997253 433.60910034 C-244.00062257 431.03250456 -243.95675042 428.45587439 -243.91467285 425.87915039 C-243.72539738 414.43056397 -243.47209226 402.98399359 -243.19268799 391.53728485 C-243.12368581 388.69588389 -243.05626726 385.8544491 -242.98925781 383.01300049 C-242.25846474 352.09811295 -241.33128687 321.19567908 -240.12823486 290.29522705 C-239.77051309 281.10291816 -239.41919869 271.91035914 -239.06787109 262.71780396 C-238.98147682 260.46117812 -238.89472983 258.20456575 -238.80761719 255.94796753 C-238.24571107 241.36856798 -237.78511755 226.79163674 -237.44848633 212.20541382 C-236.97731694 192.12347778 -235.97931783 172.06247334 -235 152 C-240.75817942 152.65257818 -246.51578144 153.30999188 -252.27294922 153.97143555 C-254.22169937 154.19469321 -256.17058807 154.41674559 -258.11962891 154.63745117 C-269.97441588 155.98083049 -281.78088999 157.4884339 -293.5703125 159.32226562 C-340.10857405 166.53616874 -340.10857405 166.53616874 -357.8125 153.75 C-369.49988941 143.82108019 -376.81520836 132.08074014 -378.21679688 116.60644531 C-379.64763026 94.9590616 -373.90252827 77.15105162 -359.5625 60.6875 C-341.916202 42.07758163 -322.82739974 35.9434299 -298 33 C-295.79002381 32.72950449 -293.58034761 32.45674516 -291.37084961 32.18237305 C-289.52683119 31.95612834 -287.68143072 31.74122541 -285.8359375 31.52734375 C-282.96752011 31.13300938 -280.17145133 30.66668383 -277.33129883 30.12524414 C-269.54005979 28.69829391 -261.70188058 27.59723251 -253.86328125 26.46875 C-252.21337537 26.22990684 -250.56348865 25.99093125 -248.91362 25.75183105 C-245.46871865 25.25304217 -242.02362118 24.75563796 -238.57836914 24.25927734 C-234.20911805 23.62971365 -229.8403273 22.99702063 -225.47167683 22.36330414 C-222.06646903 21.86965331 -218.66104005 21.3775421 -215.25554466 20.88587952 C-213.64708521 20.65351203 -212.03868571 20.42072905 -210.43035316 20.18748474 C-201.12470482 18.83906721 -191.8152249 17.57146601 -182.48149109 16.43243408 C-177.14509893 15.76960376 -171.8239689 15.00498136 -166.5 14.25 C-153.18306706 12.38573731 -139.84474002 10.71409747 -126.5 9.0625 C-110.02678943 7.02368518 -93.56726136 4.90987772 -77.12304688 2.64868164 C-49.83224562 -1.1032264 -49.83224562 -1.1032264 -40.1875 -1.5625 C-8.30046795 -3.1049132 -8.30046795 -3.1049132 0 0 Z " fill="#FFFEFE" transform="translate(1745,617)"/>
<path d="M0 0 C6.47847421 6.63272359 10.65237511 13.95277283 13.625 22.6875 C13.97949219 23.61304688 14.33398438 24.53859375 14.69921875 25.4921875 C18.72907595 39.40114612 14.35177089 52.11676556 8.20703125 64.55859375 C-0.69533216 80.54294934 -15.74241995 91.21241976 -33.02734375 96.640625 C-44.80687383 99.91082556 -57.07602188 100.85556322 -69.1875 102.25 C-71.65832813 102.54256604 -74.12903247 102.83617945 -76.59960938 103.13085938 C-81.46879176 103.7101048 -86.33873738 104.28211089 -91.20947266 104.84814453 C-96.01819389 105.4082622 -100.8248983 105.98248956 -105.63037109 106.56982422 C-106.77946457 106.70992416 -107.92855804 106.85002411 -109.11247253 106.99436951 C-111.28174381 107.25959999 -113.45079474 107.52664112 -115.61958313 107.79579163 C-116.58389755 107.91337326 -117.54821198 108.0309549 -118.54174805 108.15209961 C-119.80271553 108.30780678 -119.80271553 108.30780678 -121.0891571 108.46665955 C-123.375 108.6875 -123.375 108.6875 -127.375 108.6875 C-127.39481934 109.99452881 -127.41463867 111.30155762 -127.43505859 112.64819336 C-127.84862355 139.29474793 -128.43609888 165.92888819 -129.375 192.5625 C-129.41679382 193.76784393 -129.45858765 194.97318787 -129.50164795 196.21505737 C-129.62288614 199.68255847 -129.74805202 203.14989114 -129.875 206.6171875 C-129.91041901 207.61846176 -129.94583801 208.61973602 -129.98233032 209.65135193 C-130.18919182 215.11329448 -130.49429591 220.55807595 -130.87939453 226.01049805 C-131.39592737 233.53590689 -131.63495164 241.04961268 -131.8046875 248.58984375 C-131.83944739 250.00907895 -131.87463209 251.42830379 -131.91020203 252.84751892 C-131.9858097 255.86892225 -132.06027043 258.89035007 -132.13381958 261.9118042 C-132.80608705 289.35090489 -133.68689589 316.77685937 -134.83847809 344.20009232 C-134.93698704 346.55026199 -135.03435987 348.90047657 -135.13153076 351.2507019 C-135.2851525 354.95475659 -135.4422392 358.65864824 -135.60233498 362.36242867 C-135.68801295 364.35093236 -135.77174289 366.33951969 -135.85539246 368.32810974 C-136.80151527 389.64506991 -136.80151527 389.64506991 -140.125 397.8125 C-140.39594482 398.49916748 -140.66688965 399.18583496 -140.94604492 399.89331055 C-149.68113657 421.57840003 -166.26946426 436.52456173 -187.4375 446 C-202.48152292 452.08056873 -219.27341728 454.86524549 -234.81640625 448.72265625 C-245.89078012 443.70114626 -253.63223677 435.81580219 -258.125 424.5625 C-260.07035745 419.29193853 -260.5025941 413.96831649 -260.51756287 408.38491821 C-260.52106027 407.13705725 -260.52455767 405.88919628 -260.52816105 404.60352135 C-260.52524557 403.22998264 -260.52161136 401.8564453 -260.51733398 400.48291016 C-260.51584738 399.41179894 -260.51584738 399.41179894 -260.51433074 398.31904912 C-260.47767287 379.49674833 -259.83582357 360.69204066 -259.19635701 341.88244963 C-259.02765518 336.88892742 -258.8648901 331.89521088 -258.70127869 326.90151978 C-258.42668384 318.54620023 -258.14798604 310.19102606 -257.86645508 301.8359375 C-257.54244733 292.21939968 -257.22405026 282.602689 -256.908804 272.98586023 C-256.57003924 262.65296473 -256.22740571 252.32020019 -255.88354945 241.98747301 C-255.78582387 239.04354901 -255.68878831 236.09960294 -255.59190559 233.15565109 C-255.43917724 228.520984 -255.28381823 223.88641186 -255.12651634 219.25189781 C-255.06963639 217.56501407 -255.01357793 215.87810237 -254.95845795 214.1911602 C-254.65937826 205.05668673 -254.24759674 195.94826 -253.58889675 186.83214378 C-253.3011742 182.60213602 -253.17171946 178.37885496 -253.09375 174.140625 C-253.06613586 172.90829132 -253.06613586 172.90829132 -253.03796387 171.65106201 C-252.9805091 169.07993058 -252.92722531 166.50874256 -252.875 163.9375 C-252.60665308 150.83615133 -252.13910043 137.76993797 -251.375 124.6875 C-278.5849007 127.79019896 -278.5849007 127.79019896 -305.6875 131.6875 C-312.23049421 132.7183055 -318.79956334 133.52091379 -325.375 134.3125 C-326.45563721 134.44785156 -327.53627441 134.58320313 -328.6496582 134.72265625 C-346.53450211 136.82372943 -362.32027438 136.0912607 -377.00390625 124.63671875 C-387.28541137 115.29703089 -394.00077231 101.56630163 -394.74609375 87.65625 C-395.22309896 66.35195621 -389.56993567 49.91825159 -375.375 33.6875 C-374.83230469 33.06101563 -374.28960938 32.43453125 -373.73046875 31.7890625 C-358.50947718 15.42001561 -339.99804292 12.82630798 -318.875 11.0625 C-316.5554896 10.85488597 -314.23615334 10.64531753 -311.91699219 10.43383789 C-307.39125264 10.02244504 -302.86492723 9.61901967 -298.33789062 9.22216797 C-291.42327464 8.61024907 -284.52515292 7.88257732 -277.625 7.125 C-263.98881897 5.66641896 -250.32319907 4.56786959 -236.65734863 3.42999268 C-211.17083552 1.37771034 -211.17083552 1.37771034 -185.81640625 -1.86328125 C-180.45218693 -2.56349149 -175.0718374 -2.70237123 -169.66992188 -2.91796875 C-168.81849609 -2.95535156 -167.96707031 -2.99273437 -167.08984375 -3.03125 C-165.94696899 -3.07668945 -165.94696899 -3.07668945 -164.78100586 -3.12304688 C-162.3413351 -3.27454445 -162.3413351 -3.27454445 -159.83178711 -3.77368164 C-154.69547985 -4.57429115 -149.53523816 -4.8587987 -144.3515625 -5.21484375 C-134.44314915 -5.92195017 -124.54423578 -6.70033737 -114.6484375 -7.56640625 C-112.8119162 -7.726819 -112.8119162 -7.726819 -110.93829346 -7.89047241 C-105.94351899 -8.32821623 -100.94901212 -8.76895075 -95.95458984 -9.21069336 C-21.20883276 -15.80817508 -21.20883276 -15.80817508 0 0 Z " fill="#FFFEFE" transform="translate(1111.375,204.3125)"/>
<path d="M0 0 C27.30415048 20.82573976 41.71718773 50.84696668 46.66943359 84.39111328 C50.22451093 111.30994283 47.40354891 138.38167273 39.49487305 164.2512207 C39.00283837 165.88646467 38.5367843 167.529758 38.09741211 169.17993164 C36.28202206 175.82590602 33.48009696 181.58016292 30.13012695 187.5847168 C29.59524658 188.55070801 29.06036621 189.51669922 28.50927734 190.51196289 C24.44006303 197.7403086 20.14374855 204.37948485 14.75512695 210.7097168 C13.51375977 212.1927832 13.51375977 212.1927832 12.24731445 213.70581055 C-6.89179933 235.92217974 -35.90085448 251.80256945 -65.24487305 254.7097168 C-101.20550961 256.04969255 -130.77957413 249.16056397 -157.7722168 224.1784668 C-173.63245623 208.34328304 -183.41366419 189.15099858 -189.24487305 167.7097168 C-189.44387207 167.02748047 -189.64287109 166.34524414 -189.84790039 165.64233398 C-193.29679283 153.51330522 -193.6166011 141.47833465 -193.61987305 128.9597168 C-193.62177643 128.17706451 -193.62367981 127.39441223 -193.62564087 126.58804321 C-193.62160473 111.91243485 -192.44172318 97.63044734 -188.61987305 83.3972168 C-188.36189941 82.42792236 -188.10392578 81.45862793 -187.83813477 80.45996094 C-178.09727909 45.33253893 -155.89781773 14.37127512 -124.24633789 -4.16381836 C-84.94529012 -26.28324193 -37.12857043 -27.45550507 0 0 Z " fill="#FF537D" transform="translate(2063.244873046875,732.290283203125)"/>
<path d="M0 0 C0.91402588 0.00080566 1.82805176 0.00161133 2.76977539 0.00244141 C12.44638322 0.08921187 21.62178827 0.98663753 30.8125 4.1875 C32.44832031 4.68636719 32.44832031 4.68636719 34.1171875 5.1953125 C52.97466383 11.09601078 69.50584324 20.43969702 83.8125 34.1875 C84.72 35.03183594 85.6275 35.87617188 86.5625 36.74609375 C108.84492373 58.06913535 120.20425358 86.54634425 121.05859375 117.0390625 C121.49991528 145.99854108 121.49991528 145.99854108 116.62719727 157.14868164 C115.75137384 159.3404711 115.14834414 161.52594561 114.53515625 163.8046875 C112.90616508 169.29857945 110.49805746 174.08656675 107.6875 179.0625 C107.19668945 179.93672607 106.70587891 180.81095215 106.20019531 181.71166992 C89.05318366 211.74675831 61.86498606 231.81118645 28.8125 241.1875 C-0.57069564 248.86481953 -33.24763438 244.22993973 -59.625 229.3125 C-90.06734357 210.89152323 -111.18946565 183.46599499 -119.77392578 148.82080078 C-123.38954909 132.43480975 -124.33127804 113.52143988 -120.1875 97.1875 C-119.89230469 95.94871094 -119.59710937 94.70992188 -119.29296875 93.43359375 C-111.46351969 62.82525036 -92.58191184 35.9258053 -65.8125 19 C-53.53895398 11.76997764 -41.91570449 6.73430055 -28.1875 3.1875 C-27.27613281 2.95160156 -26.36476563 2.71570313 -25.42578125 2.47265625 C-17.04010543 0.46770409 -8.5974388 -0.00795396 0 0 Z " fill="#FFFEFE" transform="translate(1786.1875,290.8125)"/>
<path d="M0 0 C1.72065674 0.00845947 1.72065674 0.00845947 3.47607422 0.01708984 C11.78380072 0.13612522 19.23446713 0.75513011 27.1875 3.3125 C27.80705566 3.50585938 28.42661133 3.69921875 29.06494141 3.8984375 C45.74730364 9.21447917 58.96019711 17.87288745 71.1875 30.3125 C71.94804687 31.07433594 72.70859375 31.83617187 73.4921875 32.62109375 C91.80279789 52.03604057 99.07570366 77.59299528 98.31933594 103.65966797 C97.23263115 125.52658314 88.49754117 145.78813911 74.1875 162.3125 C73.57261719 163.07175781 72.95773438 163.83101562 72.32421875 164.61328125 C58.50104959 181.18391261 34.88678709 194.3126284 13.1875 196.3125 C-18.12389712 198.2100046 -43.90994075 191.29162978 -67.671875 170.2578125 C-86.17301585 153.27777641 -97.42437885 128.21247154 -98.9387207 103.23022461 C-99.86599802 77.79927627 -92.18010134 52.32576238 -74.8125 33.3125 C-74.35246582 32.80477051 -73.89243164 32.29704102 -73.41845703 31.77392578 C-65.7240563 23.38207208 -57.69514867 16.94454709 -47.8125 11.3125 C-46.51892578 10.56033203 -46.51892578 10.56033203 -45.19921875 9.79296875 C-31.44489946 2.3417745 -15.44956027 -0.07971909 0 0 Z " fill="#00C5D9" transform="translate(2035.8125,201.6875)"/>
<path d="M0 0 C16.02518908 12.27040823 26.43401515 28.09350628 31.2734375 47.72460938 C31.56347656 48.87896484 31.56347656 48.87896484 31.859375 50.05664062 C35.14945446 71.25592618 29.50687393 92.67543815 17.546875 110.26367188 C15.86530899 112.49808151 14.11554068 114.62107233 12.2734375 116.72460938 C11.70367188 117.38847656 11.13390625 118.05234375 10.546875 118.73632812 C-1.67081885 131.96783061 -20.45161414 140.65739446 -38.40673828 141.91186523 C-41.16264517 141.99120569 -43.90720035 142.00278731 -46.6640625 141.97460938 C-47.63335693 141.9671167 -48.60265137 141.95962402 -49.60131836 141.9519043 C-69.577771 141.65073483 -86.99166647 134.28071372 -101.7265625 120.72460938 C-116.98383792 104.7057395 -124.8722515 85.6092309 -124.9765625 63.59960938 C-124.9971875 62.53484375 -125.0178125 61.47007812 -125.0390625 60.37304688 C-125.09078236 49.7187557 -123.00316616 40.10754196 -118.0390625 30.66210938 C-117.69093506 29.98656006 -117.34280762 29.31101074 -116.98413086 28.61499023 C-108.0979569 11.79979934 -94.11078277 -2.86080566 -76.0390625 -9.71289062 C-74.27435086 -10.25410306 -72.50346022 -10.77563814 -70.7265625 -11.27539062 C-69.9015625 -11.57058594 -69.0765625 -11.86578125 -68.2265625 -12.16992188 C-45.47319833 -19.41263518 -18.91864038 -13.97496852 0 0 Z " fill="#FFC94F" transform="translate(1904.7265625,87.275390625)"/>
<path d="M0 0 C5.35335106 3.93456677 10.12708714 8.45073812 14.859375 13.1015625 C15.44589844 13.64296875 16.03242187 14.184375 16.63671875 14.7421875 C17.859375 16.1015625 17.859375 16.1015625 18.859375 19.1015625 C19.849375 20.0915625 19.849375 20.0915625 20.859375 21.1015625 C22.33541646 23.73812605 23.57579882 26.49198715 24.859375 29.2265625 C25.21515625 29.96132812 25.5709375 30.69609375 25.9375 31.453125 C33.44362501 47.36162874 33.56507084 65.67668708 27.92626953 82.21704102 C21.16674087 100.78277556 9.05125196 113.50205942 -8.765625 121.9765625 C-26.96844185 129.67163085 -46.0998202 130.04226978 -64.515625 122.8515625 C-82.53628117 114.66921051 -95.92186889 100.35689711 -103.140625 82.1015625 C-109.5604174 64.51582767 -107.9181932 45.90778225 -100.140625 29.1015625 C-91.97149709 11.77853509 -77.46022458 -0.27668969 -59.640625 -6.8359375 C-39.87150839 -13.52388406 -17.69720552 -11.09741893 0 0 Z " fill="#FA547E" transform="translate(1841.140625,1411.8984375)"/>
<path d="M0 0 C0.83273437 0.61488281 1.66546875 1.22976563 2.5234375 1.86328125 C10.0070813 8.3199897 14.49808938 18.00844203 15.3125 27.73046875 C15.84279026 40.09701481 12.93514146 50.34675871 5 60 C-2.69332573 68.30939282 -12.01506122 73.4375505 -23.3828125 74.23828125 C-36.53519559 74.49913227 -47.16386671 71.3305763 -56.9375 62.1875 C-65.44689722 53.09124779 -69.53639706 42.2228807 -69.24609375 29.859375 C-68.23785759 18.14463107 -62.97974553 7.96700734 -54.4765625 -0.109375 C-37.40098107 -13.14499237 -16.99438757 -13.27686529 0 0 Z " fill="#F8557F" transform="translate(1249,1680)"/>
<path d="M0 0 C2 1 2 1 3.26953125 4.79296875 C3.78878314 6.58972871 4.30257925 8.38806961 4.8125 10.1875 C8.54544861 22.92526863 12.85296661 35.4443436 17.2043457 47.98120117 C20.01814728 56.10202541 22.77244974 64.23941574 25.40234375 72.421875 C25.66366592 73.22208069 25.9249881 74.02228638 26.19422913 74.84674072 C26.43169357 75.59437683 26.66915802 76.34201294 26.91381836 77.11230469 C27.12421249 77.76801453 27.33460663 78.42372437 27.55137634 79.0993042 C28 81 28 81 28 85 C21.43283356 85.73815389 14.92627096 86.18278296 8.3203125 86.31640625 C6.98104202 86.3475779 6.98104202 86.3475779 5.61471558 86.37937927 C3.73407017 86.42231811 1.85338143 86.46339598 -0.02734375 86.50268555 C-2.83345817 86.56162742 -5.63936512 86.62698584 -8.4453125 86.69335938 C-20.63188067 86.97001656 -32.81056298 87.05211989 -45 87 C-43.52933485 83.13504201 -41.77972824 79.50530786 -39.875 75.8359375 C-39.42098312 74.9592189 -39.42098312 74.9592189 -38.95779419 74.06478882 C-37.97416593 72.16698738 -36.98715033 70.27097145 -36 68.375 C-35.31088691 67.04727745 -34.62192329 65.71947732 -33.93310547 64.39160156 C-29.98858701 56.79345936 -26.01653406 49.21016853 -22.01000977 41.64453125 C-19.18549332 36.29440744 -16.40936503 30.92018739 -13.64453125 25.5390625 C-13.25875916 24.78850586 -12.87298706 24.03794922 -12.4755249 23.26464844 C-10.52199481 19.46272458 -8.57110703 15.65947154 -6.62353516 11.85449219 C-5.90402395 10.45244697 -5.18446242 9.05042757 -4.46484375 7.6484375 C-4.12991409 6.99211334 -3.79498444 6.33578918 -3.4499054 5.65957642 C-1.11326328 1.11326328 -1.11326328 1.11326328 0 0 Z " fill="#FF557F" transform="translate(382,453)"/>
<path d="M0 0 C0 5.20972916 -4.50043514 8.41890406 -8 12 C-9.94600834 13.77094901 -11.91837286 15.38673897 -14 17 C-12.52778565 11.97769914 -9.5510349 9.19721778 -5.875 5.6875 C-5.31167969 5.13771484 -4.74835938 4.58792969 -4.16796875 4.02148438 C-2.78537942 2.67404562 -1.39359084 1.33605727 0 0 Z " fill="#A17B9D" transform="translate(1760,1417)"/>
<path d="M0 0 C0.99 0.33 1.98 0.66 3 1 C-0.96 4.465 -0.96 4.465 -5 8 C-5.66 7.67 -6.32 7.34 -7 7 C-4.69 4.69 -2.38 2.38 0 0 Z " fill="#8589A8" transform="translate(2240,1175)"/>
</svg>
